<svg width="223" height="193" viewBox="0 0 223 193" fill="none" xmlns="http://www.w3.org/2000/svg">
<g clip-path="url(#clip0_233_680)">
<path d="M203.3 153.5H18.9C10.1 153.5 3 146.4 3 137.6V18.9C3 10.1 10.1 3 18.9 3H203.3C212.1 3 219.2 10.1 219.2 18.9V137.6C219.2 146.4 212.1 153.5 203.3 153.5Z" stroke="black" stroke-width="6" stroke-miterlimit="10"/>
<path d="M16.9004 133L202.6 134" stroke="black" stroke-width="6" stroke-miterlimit="10" stroke-linecap="round"/>
<path d="M98.6992 163.5V186.5" stroke="black" stroke-width="6" stroke-miterlimit="10"/>
<path d="M123.699 163.5V186.5" stroke="black" stroke-width="6" stroke-miterlimit="10"/>
<path d="M146.3 184.1H73.9004V192H146.3V184.1Z" fill="black"/>
<path d="M38.0996 109.5L89.9996 57.5999L122.1 88.9999L170.8 39.8999" stroke="black" stroke-width="6" stroke-miterlimit="10"/>
<path d="M153.199 27.8999H181.399V55.7999" stroke="black" stroke-width="6" stroke-miterlimit="10"/>
</g>
<defs>
<clipPath id="clip0_233_680">
<rect width="222.2" height="192.1" fill="white"/>
</clipPath>
</defs>
</svg>
