<svg width="179" height="155" viewBox="0 0 179 155" fill="none" xmlns="http://www.w3.org/2000/svg">
<g clip-path="url(#clip0_232_652)">
<path d="M159.7 151.2H18.9C10.1 151.2 3 144.1 3 135.3V18.9C3 10.1 10.1 3 18.9 3H159.7C168.5 3 175.6 10.1 175.6 18.9V135.4C175.6 144.1 168.5 151.2 159.7 151.2Z" stroke="black" stroke-width="6" stroke-miterlimit="10"/>
<path d="M12.5 31.6001L160.8 32.6001" stroke="black" stroke-width="6" stroke-miterlimit="10" stroke-linecap="round"/>
<path d="M33.1004 21.2002H28.4004C27.6004 21.2002 26.9004 20.5002 26.9004 19.7002C26.9004 18.9002 27.6004 18.2002 28.4004 18.2002H33.1004C33.9004 18.2002 34.6004 18.9002 34.6004 19.7002C34.5004 20.5002 33.9004 21.2002 33.1004 21.2002Z" fill="black" stroke="black" stroke-width="2" stroke-miterlimit="10" stroke-linecap="round"/>
<path d="M49.1004 21.2002H44.4004C43.6004 21.2002 42.9004 20.5002 42.9004 19.7002C42.9004 18.9002 43.6004 18.2002 44.4004 18.2002H49.1004C49.9004 18.2002 50.6004 18.9002 50.6004 19.7002C50.6004 20.5002 49.9004 21.2002 49.1004 21.2002Z" fill="black" stroke="black" stroke-width="2" stroke-miterlimit="10" stroke-linecap="round"/>
<path d="M25.8992 111.2C24.5992 111.2 23.4992 110.8 22.5992 109.9C21.6992 109 21.1992 107.9 21.1992 106.5C21.1992 105.1 21.6992 104 22.5992 103.2C23.4992 102.4 24.5992 101.9 25.8992 101.9C27.1992 101.9 28.2992 102.3 29.1992 103.2C30.0992 104 30.4992 105.2 30.4992 106.5C30.4992 107.9 30.0992 109 29.1992 109.9C28.2992 110.7 27.1992 111.2 25.8992 111.2Z" fill="black"/>
<path d="M51.2996 111.4C48.6996 111.4 46.2996 111 44.0996 110.1C41.8996 109.3 39.8996 108 38.2996 106.5C36.6996 104.9 35.3996 103.1 34.4996 101C33.5996 98.9001 33.0996 96.6001 33.0996 94.0001C33.0996 91.4001 33.5996 89.2001 34.4996 87.0001C35.3996 84.9001 36.6996 83.0001 38.2996 81.5001C39.8996 79.9001 41.8996 78.7001 44.0996 77.9001C46.2996 77.1001 48.6996 76.6001 51.2996 76.6001C54.1996 76.6001 56.7996 77.1001 59.1996 78.1001C61.5996 79.1001 63.4996 80.6001 65.0996 82.5001L60.0996 87.1001C58.8996 85.8001 57.6996 84.8001 56.2996 84.1001C54.8996 83.4001 53.3996 83.1001 51.6996 83.1001C50.0996 83.1001 48.6996 83.4001 47.3996 83.9001C46.0996 84.4001 44.9996 85.1001 43.9996 86.1001C42.9996 87.1001 42.2996 88.2001 41.7996 89.5001C41.2996 90.8001 40.9996 92.3001 40.9996 93.9001C40.9996 95.5001 41.2996 97.0001 41.7996 98.3001C42.2996 99.6001 43.0996 100.7 43.9996 101.7C44.8996 102.7 46.0996 103.4 47.3996 103.9C48.6996 104.4 50.1996 104.7 51.6996 104.7C53.3996 104.7 54.8996 104.4 56.2996 103.7C57.6996 103 58.9996 102 60.0996 100.7L65.0996 105.3C63.4996 107.3 61.4996 108.7 59.1996 109.8C56.8996 110.9 54.1996 111.4 51.2996 111.4Z" fill="black"/>
<path d="M86 111.4C83.3 111.4 80.9 111 78.6 110.1C76.3 109.2 74.4 108 72.7 106.5C71.1 104.9 69.8 103.1 68.9 101C68 98.9003 67.5 96.6003 67.5 94.1003C67.5 91.6003 68 89.3003 68.9 87.2003C69.8 85.1003 71.1 83.2003 72.8 81.7003C74.5 80.1003 76.4 78.9003 78.7 78.1003C80.9 77.2003 83.4 76.8003 86 76.8003C88.7 76.8003 91.1 77.2003 93.3 78.1003C95.5 79.0003 97.5 80.2003 99.1 81.7003C100.7 83.3003 102 85.1003 103 87.2003C103.9 89.3003 104.4 91.6003 104.4 94.1003C104.4 96.6003 103.9 98.9003 103 101C102.1 103.1 100.8 105 99.1 106.5C97.5 108.1 95.5 109.3 93.3 110.1C91 110.9 88.6 111.4 86 111.4ZM85.9 104.7C87.4 104.7 88.8 104.4 90.1 103.9C91.4 103.4 92.5 102.7 93.4 101.7C94.4 100.7 95.1 99.6003 95.6 98.3003C96.1 97.0003 96.4 95.5003 96.4 93.9003C96.4 92.3003 96.1 90.8003 95.6 89.5003C95.1 88.2003 94.3 87.1003 93.4 86.1003C92.5 85.1003 91.3 84.4003 90.1 83.9003C88.8 83.4003 87.4 83.1003 85.9 83.1003C84.4 83.1003 83 83.5003 81.8 84.0003C80.5 84.5003 79.4 85.2003 78.5 86.2003C77.6 87.2003 76.8 88.3003 76.3 89.6003C75.8 90.9003 75.5 92.4003 75.5 94.0003C75.5 95.6003 75.8 97.0003 76.3 98.3003C76.8 99.6003 77.6 100.8 78.5 101.7C79.4 102.7 80.6 103.4 81.8 103.9C83 104.5 84.4 104.7 85.9 104.7Z" fill="black"/>
<path d="M110.199 110.8V77.2002H116.599L130.899 100.9H127.499L141.599 77.2002H147.999L148.099 110.8H140.799V88.4002H142.099L130.899 107.3H127.399L115.899 88.4002H117.499V110.8H110.199V110.8Z" fill="black"/>
</g>
<defs>
<clipPath id="clip0_232_652">
<rect width="178.6" height="154.2" fill="white"/>
</clipPath>
</defs>
</svg>
