<svg width="179" height="158" viewBox="0 0 179 158" fill="none" xmlns="http://www.w3.org/2000/svg">
<g clip-path="url(#clip0_233_671)">
<path d="M159.7 155H18.9C10.1 155 3 147.9 3 139.1V18.9C3 10.1 10.1 3 18.9 3H159.7C168.5 3 175.6 10.1 175.6 18.9V139.1C175.6 147.9 168.5 155 159.7 155Z" stroke="black" stroke-width="6" stroke-miterlimit="10"/>
<path d="M12.5 32.2998L160.8 33.2998" stroke="black" stroke-width="6" stroke-miterlimit="10" stroke-linecap="round"/>
<path d="M33.1004 21.6H28.4004C27.6004 21.6 26.9004 20.9 26.9004 20.1V20C26.9004 19.2 27.6004 18.5 28.4004 18.5H33.1004C33.9004 18.5 34.6004 19.2 34.6004 20V20.1C34.5004 21 33.9004 21.6 33.1004 21.6Z" fill="black" stroke="black" stroke-width="2" stroke-miterlimit="10" stroke-linecap="round"/>
<path d="M49.1004 21.6H44.4004C43.6004 21.6 42.9004 20.9 42.9004 20.1V20C42.9004 19.2 43.6004 18.5 44.4004 18.5H49.1004C49.9004 18.5 50.6004 19.2 50.6004 20V20.1C50.6004 21 49.9004 21.6 49.1004 21.6Z" fill="black" stroke="black" stroke-width="2" stroke-miterlimit="10" stroke-linecap="round"/>
<path d="M90.2008 137.2C102.572 137.2 112.601 127.172 112.601 114.8C112.601 102.429 102.572 92.4004 90.2008 92.4004C77.8296 92.4004 67.8008 102.429 67.8008 114.8C67.8008 127.172 77.8296 137.2 90.2008 137.2Z" stroke="black" stroke-width="5" stroke-miterlimit="10"/>
<path d="M35.8008 132.9C47.9008 122.3 49.6008 115.7 48.5008 111.6C47.1008 106.6 41.7008 105.9 38.6008 98.1002C37.7008 95.9002 34.7008 88.3002 38.7008 83.0002C41.8008 79.0002 47.9008 77.5002 54.1008 79.1002C66.9008 80.2002 71.9008 77.2002 74.1008 74.2002C76.1008 71.4002 75.1008 69.3002 77.7008 64.8002C78.7008 63.0002 83.3008 54.8002 90.4008 55.0002C95.3008 55.1002 99.9008 59.1002 102.201 64.8002C102.201 64.8002 103.601 78.0002 112.601 79.2002H124.401C124.401 79.2002 142.801 74.3002 142.801 92.6002C142.901 94.0002 142.901 96.2002 141.801 98.5002C138.901 104.8 131.601 104.2 128.701 110C126.801 113.8 128.001 117.9 128.601 119.9C131.401 129.5 141.901 132.7 142.901 133" stroke="black" stroke-width="5" stroke-miterlimit="10" stroke-linecap="round"/>
</g>
<defs>
<clipPath id="clip0_233_671">
<rect width="178.6" height="158" fill="white"/>
</clipPath>
</defs>
</svg>
