<svg width="100" height="100" viewBox="0 0 100 100" fill="none" xmlns="http://www.w3.org/2000/svg">
<g clip-path="url(#clip0_433_1403)">
<path d="M79.0391 29.0648C79.0391 45.2537 65.9748 58.2103 49.7319 58.1833C33.9201 58.1833 20.9635 45.0113 20.9904 29.0109C21.0174 12.8489 34.0817 -0.0268945 50.4053 4.21874e-05C66.0556 0.0269789 79.066 13.226 79.0391 29.0648ZM32.1961 10.3707C27.4283 15.0307 24.7885 20.6874 24.2498 27.4216C27.563 27.4216 30.8224 27.4216 34.0817 27.4216C34.2972 22.6808 34.9437 18.0476 36.4252 13.5761C36.506 13.3606 36.2097 12.9297 35.9673 12.768C34.809 11.9869 33.5699 11.2327 32.1961 10.3707ZM65.9209 30.7887C65.7054 35.5296 65.0589 40.1357 63.5504 44.6072C63.4966 44.7958 63.6313 45.1999 63.8198 45.3345C65.1128 46.1696 66.4057 46.9777 67.8065 47.8397C72.5743 43.1796 75.2141 37.5229 75.7528 30.7887C72.4934 30.7887 69.261 30.7887 65.9209 30.7887ZM67.7256 10.4246C66.4865 11.2057 65.3013 12.0138 64.0892 12.7142C63.5504 13.0374 63.4696 13.2798 63.6313 13.8994C64.2777 16.4045 64.8973 18.9096 65.3552 21.4417C65.7054 23.408 65.8132 25.4283 66.0017 27.3947C69.2611 27.3947 72.4935 27.3947 75.7259 27.3947C75.4026 21.0376 71.9547 13.7647 67.7256 10.4246ZM32.1961 47.8397C33.5699 46.9777 34.8629 46.2234 36.102 45.3615C36.3174 45.2268 36.4252 44.6881 36.3713 44.3918C35.9673 42.6947 35.4016 41.0247 35.1053 39.3007C34.6204 36.4993 34.3241 33.644 33.947 30.7887C30.7954 30.7887 27.563 30.7887 24.2767 30.7887C24.7885 37.5229 27.4283 43.2065 32.1961 47.8397ZM48.3312 27.4485C48.3312 23.7582 48.3312 20.0948 48.3312 16.5931C45.3951 15.9466 42.4859 15.327 39.5229 14.7075C38.1491 18.7749 37.4757 23.0579 37.341 27.4755C41.0852 27.4486 44.6947 27.4485 48.3312 27.4485ZM39.5498 43.5028C42.5667 42.8564 45.422 42.2368 48.3312 41.6173C48.3312 38.0886 48.3312 34.4521 48.3312 30.7887C44.6409 30.7887 41.0044 30.7887 37.341 30.7887C37.5296 35.2333 38.1761 39.4893 39.5498 43.5028ZM51.6714 27.4216C55.3617 27.4216 58.9982 27.4216 62.6616 27.4216C62.4999 22.9771 61.8265 18.6941 60.4527 14.6806C57.4897 15.327 54.6075 15.9196 51.6714 16.5661C51.6714 20.041 51.6714 23.7044 51.6714 27.4216ZM62.6616 30.7887C58.9173 30.7887 55.3078 30.7887 51.6714 30.7887C51.6714 34.506 51.6714 38.1424 51.6714 41.6442C54.6075 42.2637 57.4897 42.8833 60.4527 43.5298C61.8265 39.4893 62.4999 35.2333 62.6616 30.7887ZM48.3312 13.3068C48.3312 9.85887 48.3312 6.73422 48.3312 3.44794C44.4523 4.92946 42.5398 8.02719 40.7081 11.6367C43.321 12.2024 45.7722 12.7411 48.3312 13.3068ZM51.6983 3.58262C51.6983 6.73422 51.6983 9.88581 51.6983 13.2798C54.2573 12.7142 56.6816 12.1754 59.1328 11.6367C57.9207 7.8925 54.365 4.09442 51.6983 3.58262ZM40.7081 46.5736C42.5937 50.2101 44.4792 53.3347 48.3312 54.7355C48.3312 51.4492 48.3312 48.2976 48.3312 44.9305C45.7722 45.4692 43.3479 46.0079 40.7081 46.5736ZM51.6444 54.7624C55.5503 53.2809 57.4628 50.1831 59.2675 46.5467C56.6277 45.981 54.1765 45.4692 51.6444 44.9036C51.6444 48.3515 51.6444 51.4761 51.6444 54.7624ZM59.2406 53.1462C59.2675 53.227 59.2945 53.2809 59.3214 53.3617C61.2608 52.3112 63.2003 51.2606 65.3822 50.1023C64.17 49.3481 63.2003 48.7286 62.2844 48.136C61.207 49.8868 60.2103 51.503 59.2406 53.1462ZM62.2844 10.0744C63.2542 9.45482 64.1969 8.86222 65.3822 8.10799C63.2272 6.94971 61.2878 5.89918 59.3753 4.87558C59.3483 4.95639 59.3214 5.0372 59.2945 5.09107C60.2372 6.73421 61.207 8.35042 62.2844 10.0744ZM34.6204 50.1023C36.8292 51.2875 38.7418 52.3111 40.6812 53.3347C40.7081 53.2539 40.735 53.1731 40.762 53.0923C39.7653 51.4761 38.7956 49.833 37.7451 48.136C36.8292 48.7286 35.8595 49.3212 34.6204 50.1023ZM34.6474 8.13493C35.8595 8.88916 36.8292 9.48176 37.7451 10.0744C38.7956 8.35042 39.7653 6.70728 40.762 5.09107C40.735 5.01026 40.6812 4.95639 40.6542 4.87558C38.7148 5.92611 36.7754 6.97666 34.6474 8.13493Z" fill="#2B2B2B"/>
<path d="M90.3794 83.9618C91.7532 84.5005 91.9417 84.7968 91.9417 86.3052C91.9417 90.2111 91.9417 94.1169 91.9417 98.0227C91.9417 99.6928 91.4299 100.232 89.8137 100.232C79.3892 100.232 68.9916 100.232 58.5671 100.232C57.0048 100.232 56.4661 99.6928 56.4661 98.1035C56.4661 94.1977 56.493 90.2919 56.4392 86.3861C56.4392 85.1739 56.7355 84.258 58.0554 84.0156C58.0554 80.8101 58.0823 77.6316 58.0554 74.48C58.0284 72.8638 58.5941 71.5439 59.7254 70.4126C64.7087 65.4562 69.6651 60.4729 74.6214 55.4896C77.9616 52.1495 82.1098 52.7421 84.3995 56.9711C85.8002 55.5974 87.174 54.2506 88.4939 52.8229C88.7094 52.6074 88.6824 52.1226 88.6824 51.7724C88.6824 46.1157 88.6824 40.459 88.7093 34.8022C88.7363 30.9503 92.265 28.2566 95.8745 29.3071C98.1641 29.9806 99.9689 32.2433 99.9689 34.7484C100.023 42.3984 99.9958 50.0215 99.9689 57.6715C99.9689 58.4527 99.6726 59.2608 99.3493 59.9881C96.6018 66.4529 93.8812 72.9177 91.0528 79.3556C90.4064 80.891 90.2447 82.3725 90.3794 83.9618ZM87.2278 84.0156C86.6083 81.1065 87.8474 78.7091 88.9248 76.2848C91.43 70.5203 93.8812 64.7559 96.3324 58.9645C96.6287 58.2641 96.7903 57.483 96.7903 56.7287C96.8173 49.7252 96.8173 42.7216 96.7903 35.7181C96.7903 35.1794 96.7634 34.6406 96.6018 34.1288C96.2247 32.9167 95.0933 32.1894 93.9889 32.3779C92.8306 32.5665 92.0225 33.5362 91.9687 34.8022C91.9417 35.0986 91.9687 35.3948 91.9687 35.7181C91.9687 41.3748 91.9418 47.0315 91.9956 52.6882C91.9956 53.631 91.7263 54.3314 91.0528 55.0048C84.9113 61.1194 78.7966 67.2879 72.6551 73.4295C72.4934 73.5911 72.3318 73.7797 72.1433 73.9143C71.389 74.5339 70.5001 74.507 69.8806 73.8605C69.288 73.2409 69.261 72.4059 69.8536 71.6786C70.0152 71.4631 70.2307 71.3015 70.4193 71.086C73.8403 67.665 77.2612 64.2441 80.6552 60.7962C81.0593 60.3921 81.4095 59.8265 81.4903 59.2877C81.6789 58.2372 81.0324 57.2675 80.0896 56.8365C79.0929 56.3785 78.1232 56.621 77.1804 57.5638C72.1433 62.6009 67.0792 67.6381 62.0959 72.7291C61.6649 73.187 61.3686 73.9413 61.3416 74.5878C61.2608 77.47 61.3147 80.3792 61.3147 83.2614C61.3147 83.5308 61.3686 83.7732 61.3686 84.0425C69.9614 84.0156 78.4734 84.0156 87.2278 84.0156ZM88.6824 87.3558C78.9852 87.3558 69.3688 87.3558 59.7793 87.3558C59.7793 90.6151 59.7793 93.7667 59.7793 96.9183C69.4496 96.9183 79.0391 96.9183 88.6824 96.9183C88.6824 93.7398 88.6824 90.5882 88.6824 87.3558Z" fill="#2B2B2B"/>
<path d="M9.62313 83.9619C9.78475 82.3457 9.56927 80.8103 8.89585 79.2749C6.09444 72.9179 3.37383 66.5069 0.680155 60.096C0.276105 59.0993 0.0336676 57.968 0.0336676 56.8905C-0.0202058 49.6445 0.00673747 42.4255 0.00673747 35.1795C0.00673747 32.432 1.70373 30.0615 4.12804 29.3342C7.73756 28.2837 11.2663 30.9774 11.2663 34.8293C11.2932 40.4591 11.2932 46.062 11.2663 51.6917C11.2663 52.3921 11.4548 52.877 11.9397 53.3618C13.1518 54.5201 14.3101 55.7322 15.4684 56.9175C16.0071 56.2171 16.4112 55.5167 16.9499 54.9511C19.1587 52.7423 22.6066 52.7692 24.9232 55.0588C30.095 60.2037 35.24 65.3756 40.4118 70.5474C41.4354 71.571 41.9472 72.8101 41.9203 74.2647C41.9203 77.4971 41.9203 80.7295 41.9203 83.935C43.3479 84.5276 43.5365 84.8239 43.5365 86.2785C43.5365 90.2112 43.5365 94.144 43.5365 98.1037C43.5365 99.693 42.9977 100.232 41.4085 100.232C30.9839 100.232 20.5864 100.232 10.1619 100.232C8.5726 100.232 8.03386 99.693 8.03386 98.1037C8.03386 94.1709 8.03386 90.2382 8.03386 86.2785C8.0608 84.797 8.24936 84.5276 9.62313 83.9619ZM38.7148 84.0158C38.7148 80.6756 38.7417 77.4432 38.6879 74.2108C38.6879 73.726 38.3915 73.1603 38.0683 72.8101C32.9773 67.6652 27.8862 62.5472 22.7683 57.4562C21.6369 56.3248 20.1554 56.3248 19.1857 57.3484C18.2159 58.3451 18.3237 59.7189 19.4012 60.8233C22.8221 64.2442 26.2431 67.6921 29.6641 71.1131C29.9334 71.4094 30.2297 71.6788 30.4452 72.0289C30.8223 72.7024 30.6877 73.3489 30.1759 73.8876C29.6641 74.4263 28.9906 74.561 28.3441 74.1839C27.994 73.9953 27.6977 73.699 27.4283 73.4027C21.2867 67.2611 15.1721 61.1196 9.03054 54.978C8.38406 54.3315 8.08775 53.6581 8.08775 52.7423C8.11469 47.6243 8.11468 42.5063 8.11468 37.3883C8.11468 36.5264 8.14162 35.6374 8.11468 34.7755C8.06081 33.5364 7.19884 32.5397 6.0675 32.3781C4.99003 32.2165 3.88562 32.9168 3.50851 34.0751C3.34689 34.56 3.293 35.1256 3.293 35.6644C3.293 42.641 3.26606 49.5907 3.31993 56.5673C3.31993 57.4023 3.5085 58.3182 3.83174 59.0993C6.36379 65.1062 8.92277 71.1131 11.5356 77.0661C12.4515 79.1941 13.2596 81.2952 12.9902 83.6656C12.9633 83.7734 13.0441 83.908 13.071 84.0427C21.5561 84.0158 30.095 84.0158 38.7148 84.0158ZM11.3471 96.9185C21.0443 96.9185 30.6607 96.9185 40.2771 96.9185C40.2771 93.6861 40.2771 90.5345 40.2771 87.3559C30.6068 87.3559 20.9904 87.3559 11.3471 87.3559C11.3471 90.5614 11.3471 93.6861 11.3471 96.9185Z" fill="#2B2B2B"/>
</g>
<defs>
<clipPath id="clip0_433_1403">
<rect width="100" height="100" fill="white"/>
</clipPath>
</defs>
</svg>
