<svg width="100" height="100" viewBox="0 0 100 100" fill="none" xmlns="http://www.w3.org/2000/svg">
<path d="M49.983 76.2839C35.8721 76.2839 21.7613 76.2839 7.65046 76.2839C2.75416 76.2839 0 73.5297 0 68.6334C0 51.9724 0 35.3115 0 18.6505C0 13.7542 2.7542 11 7.68449 11C35.9062 11 64.1279 11 92.3495 11C97.2458 11 100 13.7542 100 18.6505C100 35.3115 100 51.9724 100 68.6334C100 73.5297 97.2458 76.2499 92.3155 76.2499C78.2047 76.2839 64.0938 76.2839 49.983 76.2839ZM2.07416 25.6889C2.68619 25.6889 3.23023 25.6889 3.77426 25.6889C33.186 25.6889 62.5978 25.6889 92.0095 25.6889C92.4856 25.6889 92.9955 25.5869 93.4036 25.7569C93.7776 25.8929 94.3216 26.3349 94.2876 26.6069C94.2536 26.981 93.8456 27.491 93.4376 27.661C92.9956 27.865 92.4516 27.763 91.9415 27.763C62.5638 27.763 33.186 27.763 3.80821 27.763C3.23018 27.763 2.65221 27.763 2.00617 27.763C2.00617 28.307 2.00617 28.6471 2.00617 28.9871C2.00617 42.3499 2.00617 55.6787 2.00617 69.0415C2.00617 72.3057 3.97825 74.2778 7.24245 74.2778C35.7362 74.2778 64.1959 74.2778 92.6896 74.2778C95.9538 74.2778 97.9258 72.3057 97.9258 69.0075C97.9258 52.1425 97.9258 35.2434 97.9258 18.3784C97.9258 17.8684 97.9259 17.3584 97.7899 16.8483C97.2118 14.3662 95.3077 13.0741 92.3495 13.0741C64.1279 13.0741 35.9062 13.0741 7.68449 13.0741C7.31047 13.0741 6.9024 13.0741 6.52837 13.1081C4.18223 13.3121 2.21012 15.0462 2.10811 17.2904C1.9721 20.0105 2.07416 22.7647 2.07416 25.6889Z" fill="#2B2B2B"/>
<path d="M21.4212 86.7224C21.4212 87.5385 21.5573 88.2185 21.3873 88.7965C21.2513 89.2726 20.7413 89.6126 20.3672 89.9866C20.0272 89.6126 19.4492 89.2386 19.4152 88.8645C19.3132 86.8584 19.3132 84.8523 19.4152 82.8802C19.4492 82.4722 20.0272 82.0981 20.3332 81.7241C20.6732 82.0981 21.1832 82.4382 21.3533 82.9142C21.5233 83.3902 21.3873 84.0023 21.3873 84.6823C22.0333 84.6823 22.5773 84.6823 23.1213 84.6823C47.9768 84.6823 72.8664 84.6823 97.7218 84.6823C98.5719 84.6823 99.8979 84.2743 99.8639 85.7024C99.8299 87.0624 98.5038 86.6884 97.6538 86.6884C72.8323 86.6884 48.0108 86.6884 23.1893 86.6884C22.6793 86.7224 22.1353 86.7224 21.4212 86.7224Z" fill="#2B2B2B"/>
<path d="M8.90854 86.7226C6.4944 86.7226 4.08032 86.7226 1.66618 86.7226C0.918135 86.7226 0.102019 86.6886 0.0680174 85.7026C0.0340154 84.7165 0.850064 84.6825 1.59811 84.6825C6.4604 84.6825 11.3567 84.6825 16.219 84.6825C16.967 84.6825 17.8171 84.6485 17.8171 85.6686C17.8171 86.7226 16.933 86.7226 16.151 86.7226C13.7368 86.6886 11.3227 86.7226 8.90854 86.7226Z" fill="#2B2B2B"/>
<path d="M50.017 67.4773C40.9385 67.5113 33.458 60.0309 33.458 50.9183C33.458 41.8738 40.9045 34.4274 49.915 34.4274C59.0275 34.3934 66.5079 41.8058 66.542 50.8843C66.576 59.9969 59.1296 67.4773 50.017 67.4773ZM49.7109 65.4372C57.4634 65.7092 64.1958 59.3509 64.5018 51.4284C64.8078 43.6419 58.4495 36.7395 50.6971 36.4675C42.5026 36.1955 35.8041 42.3838 35.5321 50.5783C35.2261 58.4668 41.6185 65.1652 49.7109 65.4372Z" fill="#2B2B2B"/>
<path d="M19.2791 18.3443C19.9932 18.3443 20.7412 18.2423 21.4213 18.3783C21.8293 18.4803 22.1693 18.9904 22.5434 19.2964C22.2033 19.6364 21.8633 20.2825 21.4893 20.3165C19.9592 20.4185 18.4291 20.4185 16.899 20.3165C16.525 20.2825 16.185 19.6704 15.845 19.3304C16.219 18.9904 16.559 18.4803 16.9671 18.3783C17.7151 18.2423 18.4971 18.3443 19.2791 18.3443Z" fill="#2B2B2B"/>
<path d="M10.2346 18.3443C10.9487 18.3443 11.6967 18.2423 12.3768 18.3783C12.7848 18.4803 13.1248 18.9904 13.4988 19.3304C13.1248 19.6704 12.7848 20.2825 12.4107 20.3165C10.9487 20.4185 9.45262 20.4525 7.95653 20.3165C7.5485 20.2825 7.17443 19.6364 6.80041 19.2964C7.17443 18.9904 7.5145 18.4803 7.95653 18.3783C8.67057 18.2423 9.4866 18.3443 10.2346 18.3443Z" fill="#2B2B2B"/>
<path d="M28.3237 20.3846C27.5757 20.3846 26.7596 20.4866 26.0456 20.3506C25.6376 20.2486 25.3315 19.7045 24.9915 19.3645C25.3655 19.0245 25.7055 18.4464 26.0795 18.4124C27.5416 18.3104 29.0377 18.3104 30.5338 18.4124C30.9419 18.4464 31.2819 19.0245 31.6559 19.3305C31.2819 19.6705 30.9419 20.2486 30.4659 20.3506C29.7858 20.5206 29.0377 20.3846 28.3237 20.3846Z" fill="#2B2B2B"/>
<path d="M45.8688 50.9184C45.8688 48.9122 45.8007 46.9401 45.9027 44.934C45.9367 44.288 46.3107 43.3699 46.8208 43.0979C47.2288 42.8599 48.2148 43.1659 48.6909 43.5399C51.139 45.444 53.4852 47.4501 55.8653 49.4563C57.0894 50.4763 57.0894 51.3944 55.8994 52.3804C53.5192 54.4206 51.105 56.4267 48.6229 58.3648C48.1469 58.7388 47.2289 58.9768 46.7188 58.7728C46.2768 58.6028 45.9027 57.7188 45.9027 57.1407C45.8007 55.0666 45.8688 52.9925 45.8688 50.9184ZM47.9769 56.3587C50.221 54.4886 52.2951 52.7545 54.4712 50.9524C52.2951 49.1503 50.221 47.4161 47.9769 45.546C47.9769 49.2523 47.9769 52.6525 47.9769 56.3587Z" fill="#2B2B2B"/>
</svg>
