<svg xmlns="http://www.w3.org/2000/svg" xmlns:svgjs="http://svgjs.com/svgjs" xmlns:xlink="http://www.w3.org/1999/xlink" width="288" height="288"><svg xmlns="http://www.w3.org/2000/svg" width="288" height="288" enable-background="new 0 0 31 30" viewBox="0 0 31 30"><path fill="#2b2b2b" d="M18,16c0,0.6,0.2,1.1,0.6,1.4l-3.4,2C14.9,19.2,14.5,19,14,19c-1.1,0-2,0.9-2,2s0.9,2,2,2c1.1,0,2-0.9,2-2	c0-0.3-0.1-0.5-0.1-0.7l3.8-2.3c0.1,0,0.2,0,0.3,0c1.1,0,2-0.9,2-2c0,0,0,0,0-0.1l5.3-0.9c0.4,0.6,1,1,1.7,1c1.1,0,2-0.9,2-2
	c0-1.1-0.9-2-2-2s-2,0.9-2,2c0,0,0,0,0,0.1L21.7,15c-0.4-0.6-1-1-1.7-1C18.9,14,18,14.9,18,16z M14,22c-0.6,0-1-0.4-1-1s0.4-1,1-1
	c0.1,0,0.2,0,0.3,0.1l0,0c-0.2,0.1-0.2,0.3-0.2,0.4c0,0.1,0,0.2,0.1,0.3c0.1,0.2,0.3,0.2,0.4,0.2c0.1,0,0.2,0,0.3-0.1l0.2-0.1
	c0,0.1,0,0.1,0,0.2C15,21.6,14.6,22,14,22z M29,13c0.6,0,1,0.4,1,1s-0.4,1-1,1s-1-0.4-1-1S28.4,13,29,13z M21,16c0,0.6-0.4,1-1,1
	s-1-0.4-1-1s0.4-1,1-1S21,15.4,21,16z M13,24.5v3c0,0.3,0.2,0.5,0.5,0.5s0.5-0.2,0.5-0.5v-3c0-0.3-0.2-0.5-0.5-0.5S13,24.2,13,24.5z
	 M16,23.5v4c0,0.3,0.2,0.5,0.5,0.5s0.5-0.2,0.5-0.5v-4c0-0.3-0.2-0.5-0.5-0.5S16,23.2,16,23.5z M19,21.5v6c0,0.3,0.2,0.5,0.5,0.5
	s0.5-0.2,0.5-0.5v-6c0-0.3-0.2-0.5-0.5-0.5S19,21.2,19,21.5z M22,19.5v8c0,0.3,0.2,0.5,0.5,0.5s0.5-0.2,0.5-0.5v-8
	c0-0.3-0.2-0.5-0.5-0.5S22,19.2,22,19.5z M25,19.5v8c0,0.3,0.2,0.5,0.5,0.5s0.5-0.2,0.5-0.5v-8c0-0.3-0.2-0.5-0.5-0.5
	S25,19.2,25,19.5z M28,18.5v9c0,0.3,0.2,0.5,0.5,0.5s0.5-0.2,0.5-0.5v-9c0-0.3-0.2-0.5-0.5-0.5S28,18.2,28,18.5z M1.7,19.1
	C1.7,19.1,1.7,19.1,1.7,19.1c0.4,1,0.8,1.7,0.8,2.4C2.5,21.8,2.7,22,3,22c0,0,0,0,0,0c0.3,0,0.5-0.2,0.5-0.5c0-0.9-0.4-1.7-0.9-2.8
	c0,0,0,0,0,0c0,0,0,0,0,0C1.9,17.1,1,15.1,1,12C1,5.1,5.3,1,12.5,1C12.8,1,13,0.8,13,0.5S12.8,0,12.5,0C4.7,0,0,4.5,0,12
	c0,2.1,0.4,3.6,0.9,5C1.1,17.8,1.4,18.5,1.7,19.1z M13.3,6.9C13.3,7,13.4,7,13.5,7c0.2,0,0.4-0.1,0.4-0.3C14,6.7,14,6.6,14,6.5
	c0-0.2-0.1-0.4-0.3-0.4l-2-1c-0.2-0.1-0.5,0-0.7,0.2C11,5.3,11,5.4,11,5.5c0,0.2,0.1,0.4,0.3,0.4L13.3,6.9z M30.5,29H1v-2h1.5h3.1
	h5.7c0.3,0,0.5-0.2,0.5-0.5S11.6,26,11.3,26H5.6H3.1c0.1-0.3,0.2-0.7,0.5-1c0.7-0.6,2.4-2.7,2.4-3.8c0-1.4-0.5-2.6-1.1-3.8
	c-0.7-1.4-1.4-2.9-1.4-5.3C3.5,7,6.7,4.1,12.5,4c0,0,0,0,0,0c0.3,0,0.5,0.1,0.7,0.3c0.9,0.8,2.2,2,3.4,3l2,1.8
	c0.3,0.3,0.5,0.7,0.4,1.1c0,0.2-0.1,0.5-0.2,0.7c0,0,0,0,0,0c0,0,0,0,0,0c0,0,0,0,0,0c0,0,0,0,0,0c0,0,0,0.1-0.1,0.1c0,0,0,0,0,0
	c0,0,0,0,0,0c0,0,0,0,0,0c0,0,0,0,0,0c0,0,0,0,0,0c-0.4,0.4-1,0.6-1.6,0.4c0,0,0,0,0,0c0,0,0,0,0,0c-1-0.4-2.1-0.8-3.2-1
	c-1.6-0.4-2.8-0.4-3.5-0.1c0,0,0,0,0,0h0c0,0,0,0,0,0c0,0,0,0,0,0h0c-0.3,0.2-0.4,0.4-0.5,0.8c0,0,0,0,0,0c0,1.1,1.8,2.3,2.3,2.7
	c1.2,0.8,1.8,2,2.3,2.9c0.1,0.3,0.3,0.5,0.4,0.7c0,0,0,0,0,0c0,0,0,0,0,0c0.1,0.2,0.5,0.3,0.7,0.2c0.2-0.1,0.2-0.3,0.2-0.4
	c0-0.1,0-0.2-0.1-0.3c0,0,0,0,0,0c0,0,0,0,0,0c-0.1-0.2-0.2-0.4-0.4-0.6c-0.5-1-1.2-2.3-2.7-3.3c-1.2-0.8-1.8-1.5-1.9-1.8
	c0.3-0.1,0.9-0.1,1.6,0c1.1,0.2,2.5,0.6,4.3,1.2c1.1,0.4,2.3,0,2.9-0.9c0.3-0.4,0.4-0.8,0.4-1.2c0-0.7-0.2-1.4-0.8-1.8h0
	c-1.5-1.3-3.9-3.6-5.4-4.9C13.5,3.2,13,3,12.5,3c0,0,0,0,0,0h0c0,0,0,0,0,0c-6.3,0.1-9.9,3.4-9.9,9.2c0,2.6,0.8,4.3,1.5,5.7
	c0.5,1.1,1,2.1,1,3.3c0,0.6-1.3,2.4-2.1,3c-0.6,0.5-0.8,1.2-0.9,1.7H0.5C0.2,26,0,26.2,0,26.5v3C0,29.8,0.2,30,0.5,30h30
	c0.3,0,0.5-0.2,0.5-0.5S30.8,29,30.5,29z" class="color0f204a svgShape"/></svg></svg>