<svg width="100" height="100" viewBox="0 0 100 100" fill="none" xmlns="http://www.w3.org/2000/svg">
<g clip-path="url(#clip0_431_6974)">
<path d="M10.3594 81.1232C36.8468 81.1232 63.0927 81.1232 89.5197 81.1232C89.5499 80.4286 89.6103 79.8245 89.6103 79.1903C89.6103 68.5289 89.6103 57.8372 89.6103 47.1758C89.6103 44.9408 89.9426 44.518 92.3587 43.6723C92.389 44.1858 92.4192 44.669 92.4192 45.1522C92.4192 57.2332 92.4192 69.3141 92.4192 81.3951C92.4192 83.6904 92.1775 83.9321 89.9426 83.9321C63.3041 83.9321 36.6958 83.9321 10.0573 83.9321C7.76195 83.9321 7.55054 83.7206 7.55054 81.4555C7.55054 63.9985 7.55054 46.5415 7.55054 29.0544C7.55054 24.4938 9.99693 22.0776 14.5575 22.0776C27.7861 22.0776 41.0147 22.0776 54.2736 22.0776C54.8172 22.0776 55.3609 22.0776 55.9951 22.0776C54.9078 23.618 52.6729 24.8563 51.0721 24.8563C38.9912 24.8563 26.9102 24.8563 14.8293 24.8563C11.4164 24.8563 10.3292 25.9435 10.3292 29.3866C10.3292 46.0583 10.3292 62.6998 10.3292 79.3715C10.3594 79.8547 10.3594 80.3984 10.3594 81.1232Z" fill="black"/>
<path d="M82.09 9C83.6303 9.24162 84.8686 9.78526 85.6841 10.9934C90.0936 17.5473 94.5032 24.1012 98.8221 30.7155C100.362 33.0713 99.6074 35.4573 96.8891 37.2392C89.7312 42.0112 82.543 46.7529 75.3851 51.4947C72.395 53.4579 69.4352 55.4512 66.4452 57.4144C63.8478 59.1057 61.492 58.7131 59.8007 56.1761C55.5421 49.8336 51.3138 43.4609 47.1157 37.058C45.5149 34.6116 46.0888 32.1954 48.5654 30.5343C58.8342 23.7085 69.103 16.913 79.402 10.1477C80.1872 9.63425 81.1839 9.39263 82.09 9ZM65.1163 54.5452C65.2371 54.6056 65.3277 54.6962 65.4485 54.7566C75.3247 48.1725 85.231 41.6185 95.1072 35.0344C95.077 34.9136 95.0166 34.7626 94.9864 34.6418C90.5467 33.9169 86.1069 33.1619 81.5464 32.437C81.7578 31.4706 81.939 30.7155 82.1202 29.8094C86.8016 30.5343 91.3621 31.2591 96.3757 32.0444C92.0266 25.5207 87.9191 19.3896 83.6001 12.9263C83.3585 13.8928 83.2075 14.376 83.0867 14.8593C81.3953 21.685 79.7342 28.5409 78.0429 35.3667C77.2878 38.4171 75.3549 39.6856 72.2138 39.1722C65.5995 38.1151 58.9852 37.058 52.4011 36.0009C51.5554 35.8499 50.6795 35.7593 49.3808 35.5479C53.7602 42.1018 57.8375 48.2631 62.1564 54.7566C63.3645 49.8336 64.4518 45.3636 65.5693 40.7729C66.5358 40.9541 67.321 41.1051 68.2875 41.2561C67.2304 45.7865 66.1734 50.1658 65.1163 54.5452ZM50.4379 32.6182C51.042 32.8297 51.3138 32.9807 51.5856 33.0109C58.5926 34.1586 65.5995 35.276 72.6065 36.3935C74.4186 36.6654 75.0226 36.2123 75.4757 34.37C76.7744 29.145 78.0127 23.92 79.2812 18.695C79.7342 16.7922 80.1872 14.9197 80.7611 12.5639C70.4923 19.3594 60.5859 25.9133 50.4379 32.6182Z" fill="black"/>
<path d="M49.9849 91.4525C36.3938 91.4525 22.8028 91.4525 9.21171 91.4525C4.50015 91.4525 0.785258 88.3718 0.120806 84.0227C0.0604016 83.5696 -0.120813 83.026 0.0604016 82.6938C0.332223 82.1501 0.845663 81.6971 1.2685 81.2139C1.78194 81.6669 2.47659 82.0293 2.74841 82.6032C3.17124 83.479 3.11084 84.5965 3.56387 85.4724C4.68136 87.6168 6.55391 88.704 8.9701 88.7343C12.2319 88.7645 15.524 88.7343 18.7859 88.7343C42.5249 88.7343 66.2942 88.7343 90.0332 88.7343C94.4428 88.7343 96.4663 87.0127 97.1912 82.6938C97.3422 81.7877 97.765 81.1535 98.7617 81.2441C99.7584 81.3649 100.03 82.0897 100 82.9958C99.9396 87.1637 96.3757 90.9692 92.1172 91.3921C91.4829 91.4525 90.8185 91.4525 90.154 91.4525C76.7442 91.4525 63.3645 91.4525 49.9849 91.4525Z" fill="black"/>
<path d="M43.0082 34.9741C43.7632 36.0614 43.431 36.6957 42.4343 37.3601C35.1253 42.1623 27.8466 47.0249 20.5376 51.827C20.0846 52.1291 19.3295 51.978 18.7255 52.0385C18.9973 51.525 19.1181 50.8002 19.5409 50.5283C27.1821 45.3939 34.8535 40.3199 42.5249 35.2157C42.6457 35.1251 42.7967 35.0949 43.0082 34.9741Z" fill="black"/>
<path d="M48.052 43.3401C48.4144 43.8535 48.6862 44.2462 49.0185 44.7596C46.0888 46.7228 43.2498 48.5953 40.4108 50.498C36.8167 52.884 33.2226 55.3002 29.5681 57.6258C29.1755 57.8976 28.511 57.7466 27.9674 57.807C28.1788 57.2634 28.2392 56.5083 28.6319 56.2667C35.0348 51.9478 41.4679 47.7194 48.052 43.3401Z" fill="black"/>
<path d="M53.5185 51.4946C53.881 52.0383 54.1226 52.4611 54.4548 52.9443C50.5889 55.5115 46.8438 58.0183 43.0987 60.4949C41.6792 61.4312 40.2899 62.4279 38.81 63.2735C38.3872 63.5152 37.6925 63.334 37.1187 63.3642C37.3603 62.8809 37.4509 62.2165 37.8133 61.9446C42.9477 58.5016 48.1425 55.0585 53.5185 51.4946Z" fill="black"/>
<path d="M58.9852 59.6794C59.4685 60.0721 59.8007 60.3741 60.1631 60.6761C60.0725 60.8573 60.0121 61.0083 59.9215 61.099C55.9046 63.787 51.8877 66.475 47.8405 69.1026C47.4781 69.3442 46.8137 69.1026 46.27 69.1026C46.4512 68.6495 46.5116 68.0153 46.8439 67.7737C50.8608 65.0555 54.8777 62.3977 58.9852 59.6794Z" fill="black"/>
</g>
<defs>
<clipPath id="clip0_431_6974">
<rect width="100" height="82.4524" fill="white" transform="translate(0 9)"/>
</clipPath>
</defs>
</svg>
