<svg width="100" height="100" viewBox="0 0 100 100" fill="none" xmlns="http://www.w3.org/2000/svg">
<g clip-path="url(#clip0_431_6941)">
<path d="M99.9805 3.74926C99.7266 5.97539 99.5118 8.20152 99.1994 10.4081C97.8911 19.5665 95.6064 28.4319 91.1932 36.653C89.2404 40.2851 86.8385 43.5852 83.9094 46.4948C80.5312 49.8731 77.1334 53.2513 73.7747 56.6491C73.4427 56.9811 73.1693 57.5083 73.1107 57.977C72.4663 63.5032 71.9001 69.0295 71.2361 74.5558C71.1385 75.2978 70.7479 76.1375 70.2402 76.6842C65.0068 81.9957 59.7149 87.2486 54.462 92.521C53.7981 93.1849 53.0951 93.6536 52.1187 93.3607C51.1424 93.0678 50.8104 92.2867 50.6932 91.3494C50.166 87.5806 49.6192 83.8118 49.0529 80.0625C48.9943 79.711 48.7795 79.3595 48.5452 79.0861C47.6079 78.0512 46.6511 77.0553 45.5966 75.9422C45.2841 76.3913 45.1084 76.6452 44.9522 76.8991C43.5462 79.2424 42.1597 81.5856 40.7342 83.9289C39.836 85.3935 38.4886 85.5692 37.2584 84.3585C30.0528 77.1724 22.8471 69.9668 15.6415 62.7417C14.4112 61.4919 14.5675 60.1836 16.0711 59.2853C18.6487 57.7231 21.2458 56.1609 23.9406 54.5401C22.808 53.349 21.7145 52.1968 20.621 51.0838C20.4843 50.9471 20.1914 50.9666 19.9766 50.9276C16.4031 50.4199 12.8295 49.8926 9.256 49.3849C8.90451 49.3263 8.55303 49.2873 8.20154 49.2091C6.61982 48.8576 6.07306 47.2174 7.08848 45.9676C7.2447 45.7723 7.43994 45.5966 7.63521 45.4013C12.81 40.2265 18.0043 35.0518 23.1595 29.8575C23.9016 29.1154 24.7022 28.7834 25.7372 28.6858C31.2049 28.1195 36.6725 27.5142 42.1207 26.8698C42.5503 26.8112 43.0385 26.5573 43.3704 26.2254C46.4558 23.1791 49.5606 20.1718 52.5483 17.0475C57.7817 11.5602 64.1281 7.86956 71.1775 5.27241C78.9494 2.4214 86.9947 0.820151 95.2353 0.175746C95.5868 0.156218 95.9383 0.0585823 96.2898 0C97.52 0 98.7698 0 100 0C99.9805 1.26928 99.9805 2.49951 99.9805 3.74926ZM55.4189 69.42C55.7509 69.1076 56.0047 68.8733 56.2585 68.6194C64.2843 60.5936 72.271 52.5093 80.3749 44.5421C85.5887 39.4259 89.0256 33.2943 91.3884 26.4792C91.4861 26.2254 91.4079 25.7567 91.2322 25.5614C85.6669 19.957 80.0625 14.3527 74.4581 8.78735C74.2824 8.6116 73.8723 8.51396 73.638 8.59207C67.1158 10.8573 61.1209 14.0012 56.1804 18.9611C46.0652 29.0959 35.9305 39.2111 25.8153 49.3263C25.5809 49.5606 25.3466 49.834 25.1709 50.0098C33.47 58.3089 41.7106 66.5495 49.8731 74.712C50.7323 73.8918 51.6305 73.0131 52.7046 71.9781C52.4507 71.7829 52.1187 71.6071 51.8649 71.3533C47.2564 66.7643 42.6479 62.1558 38.059 57.5474C37.7661 57.2544 37.4536 56.942 37.2388 56.5905C36.7506 55.829 36.8678 54.8916 37.4732 54.2472C38.098 53.6028 39.0939 53.4661 39.875 53.9934C40.2265 54.2277 40.5389 54.5206 40.8319 54.8135C45.6747 59.6759 50.498 64.4991 55.4189 69.42ZM20.2304 61.3552C26.4011 67.5259 32.5327 73.6575 38.6643 79.7891C39.9141 77.6997 41.2419 75.4736 42.4917 73.4036C37.1802 68.0922 31.9274 62.8393 26.6159 57.5278C24.507 58.7776 22.2808 60.125 20.2304 61.3552ZM38.3324 31.2439C34.1926 31.7126 30.287 32.1422 26.3816 32.6108C26.0496 32.6499 25.6786 32.9233 25.4247 33.1771C21.363 37.1998 17.3209 41.2615 13.2787 45.3037C13.1029 45.4794 12.9662 45.6747 12.7905 45.909C13.0053 45.9871 13.1225 46.0457 13.2396 46.0652C16.0321 46.4753 18.8245 46.9049 21.6364 47.2369C22.027 47.2759 22.5737 47.0416 22.8666 46.7487C27.8071 41.8473 32.7085 36.9264 37.6294 32.0055C37.8051 31.8297 37.9809 31.6344 38.3324 31.2439ZM68.7171 61.7653C68.5023 61.9215 68.3851 61.9801 68.307 62.0582C63.2299 67.1353 58.1332 72.2125 53.0951 77.3091C52.8412 77.563 52.7436 78.1293 52.7827 78.5198C52.9194 79.8477 53.1341 81.156 53.3294 82.4839C53.5638 84.0461 53.7981 85.6083 54.052 87.2681C54.2668 87.1119 54.3839 87.0533 54.462 86.9752C58.6409 82.7963 62.8393 78.6175 66.9986 74.4191C67.233 74.1847 67.3697 73.8137 67.4087 73.4818C67.6626 71.5095 67.8774 69.5567 68.1117 67.5845C68.307 65.6903 68.5023 63.7962 68.7171 61.7653ZM95.9383 4.08123C89.9239 4.53036 84.1437 5.54579 78.6175 7.04941C83.4212 11.8532 88.2054 16.6374 92.9701 21.4021C94.4737 15.8758 95.4697 10.1152 95.9383 4.08123Z" fill="#2B2B2B"/>
<path d="M0 97.4809C0.585823 96.8365 1.11304 96.153 1.73792 95.5282C7.90859 89.338 14.0988 83.1478 20.289 76.9576C20.6014 76.6451 20.9334 76.3132 21.324 76.0788C22.066 75.5907 23.0228 75.7274 23.6477 76.3718C24.2726 77.0162 24.4093 77.9535 23.9406 78.6955C23.7258 79.047 23.4134 79.3595 23.1205 79.6524C16.7155 86.0769 10.291 92.4819 3.86644 98.9064C3.45637 99.3165 2.9877 99.6485 2.53857 100.019C1.69889 100.019 0.83968 100.019 0 100.019C0 99.1603 0 98.3206 0 97.4809Z" fill="#2B2B2B"/>
<path d="M16.364 70.2793C18.2386 70.2793 19.1564 71.822 18.4339 73.1108C18.2386 73.4623 17.9262 73.7747 17.6333 74.0871C13.9621 77.7778 10.291 81.449 6.60027 85.1202C6.34641 85.374 6.09253 85.6279 5.79962 85.8231C5.01853 86.3504 4.04217 86.2723 3.37824 85.6474C2.69478 85.003 2.5971 83.968 3.14387 83.1674C3.31962 82.894 3.55396 82.6597 3.78829 82.4254C7.4985 78.6956 11.2282 74.9659 14.958 71.2752C15.4462 70.787 16.0711 70.4746 16.364 70.2793Z" fill="#2B2B2B"/>
<path d="M29.877 83.2845C29.584 83.7922 29.3693 84.3976 28.9592 84.8076C25.0927 88.7131 21.2068 92.5991 17.3208 96.4655C16.3444 97.4419 15.2118 97.4809 14.3917 96.6608C13.5911 95.8602 13.6301 94.6885 14.587 93.7121C18.4534 89.8262 22.3394 85.9402 26.2253 82.0543C26.8697 81.4099 27.6118 81.0779 28.51 81.4489C29.2716 81.7809 29.7012 82.3472 29.877 83.2845Z" fill="#2B2B2B"/>
<path d="M63.5032 24.8193C70.0059 24.8193 75.2001 30.0332 75.2001 36.5358C75.2001 42.9994 69.9082 48.2718 63.4642 48.2327C57.0592 48.1937 51.7868 42.9213 51.7868 36.5358C51.7868 30.0527 57.0201 24.8193 63.5032 24.8193ZM63.4837 28.7248C59.2267 28.7444 55.7313 32.2202 55.6922 36.4772C55.6532 40.6951 59.2853 44.3468 63.5228 44.3272C67.7993 44.3077 71.3337 40.7537 71.2947 36.4577C71.2556 32.1616 67.7602 28.7053 63.4837 28.7248Z" fill="#2B2B2B"/>
<path d="M33.3919 52.0015C32.3179 52.0211 31.4392 51.2009 31.4196 50.1464C31.4001 49.092 32.2398 48.1937 33.2943 48.1742C34.3292 48.1546 35.247 49.0138 35.2665 50.0488C35.3056 51.1033 34.4464 51.982 33.3919 52.0015Z" fill="#2B2B2B"/>
</g>
<defs>
<clipPath id="clip0_431_6941">
<rect width="100" height="100" fill="white"/>
</clipPath>
</defs>
</svg>
