<svg width="100" height="100" viewBox="0 0 100 100" fill="none" xmlns="http://www.w3.org/2000/svg">
<g clip-path="url(#clip0_433_2984)">
<path d="M100 15.7125C100 38.635 100 61.5574 100 84.4563C99.9527 84.5744 99.8818 84.6926 99.8582 84.8107C98.4876 90.9313 94.3993 94.216 88.137 94.216C71.4769 94.216 54.8167 94.216 38.133 94.216C29.1767 94.216 20.2204 94.2397 11.2877 94.216C4.95449 94.1924 0.0391452 89.3952 0.0155138 83.1802C-0.00811761 61.1557 -0.00809454 39.1076 0.0391683 17.0831C0.0391683 15.5471 0.417248 13.8693 1.07893 12.475C3.15849 8.05593 6.82138 6 11.6422 6C37.1877 6 62.7333 6 88.3025 6C88.6569 6 89.0114 6 89.3659 6.02363C93.8795 6.3781 97.1406 8.57582 99.0311 12.6877C99.4801 13.6093 99.6928 14.6964 100 15.7125ZM3.30028 32.4672C3.30028 32.8453 3.30028 33.1761 3.30028 33.4833C3.30028 49.8126 3.30028 66.1656 3.30028 82.4949C3.30028 87.6465 6.56141 90.9076 11.7131 90.9076C37.235 90.9076 62.7333 90.9076 88.2552 90.9076C93.4068 90.9076 96.668 87.6465 96.668 82.4949C96.668 66.1892 96.668 49.8835 96.668 33.5778C96.668 33.2234 96.668 32.8689 96.668 32.4672C65.5454 32.4672 34.5174 32.4672 3.30028 32.4672ZM3.34756 29.0406C34.4938 29.0406 65.569 29.0406 96.6443 29.0406C96.6443 24.7633 96.6916 20.5806 96.6207 16.3742C96.5971 15.4762 96.2899 14.5073 95.8881 13.6802C94.3285 10.5609 91.6581 9.26113 88.2552 9.26113C62.7569 9.26113 37.2822 9.26113 11.784 9.26113C11.5949 9.26113 11.3822 9.26113 11.1932 9.26113C6.96316 9.40292 3.60749 12.286 3.41844 16.3742C3.18213 20.5806 3.34756 24.7633 3.34756 29.0406Z" fill="#2B2B2B"/>
<path d="M54.5095 43.9757C54.1787 45.559 53.8242 47.3077 53.4461 49.0565C51.6501 57.6347 49.8305 66.2129 48.0345 74.7911C47.9873 75.0037 47.94 75.2401 47.8691 75.4528C47.5855 76.5162 46.8057 77.1306 45.9313 76.9415C44.9388 76.7288 44.4425 75.9017 44.6552 74.7674C45.1279 72.4752 45.6005 70.1829 46.0967 67.8907C47.7982 59.856 49.476 51.7977 51.1775 43.763C51.4611 42.4397 52.3354 41.8016 53.3516 42.1561C54.1078 42.4397 54.4859 42.9832 54.5095 43.9757Z" fill="#2B2B2B"/>
<path d="M31.3271 59.407C33.7376 61.4629 36.0534 63.448 38.3929 65.4094C39.0546 65.9765 39.7399 66.5201 40.4016 67.1108C41.2051 67.8434 41.2996 68.8359 40.7088 69.5449C40.0708 70.2774 39.1255 70.3247 38.2748 69.6158C34.8246 66.7091 31.3744 63.7788 27.9479 60.8249C26.8845 59.9269 26.8845 58.8871 27.9242 57.9891C31.3508 55.0352 34.801 52.1049 38.2512 49.1982C39.1492 48.442 40.1417 48.5129 40.7561 49.2691C41.3469 50.0017 41.2051 50.9942 40.3071 51.7504C37.7076 53.9718 35.1082 56.1931 32.5087 58.3909C32.1306 58.7217 31.7761 59.0289 31.3271 59.407Z" fill="#2B2B2B"/>
<path d="M68.6647 59.407C66.0889 57.2092 63.584 55.0824 61.0791 52.9556C60.701 52.6484 60.3465 52.3175 59.9684 52.0103C58.8577 51.0414 58.6214 50.0726 59.3303 49.2691C60.0156 48.4656 60.9845 48.5601 62.1425 49.529C64.9782 51.9394 67.7904 54.3498 70.6025 56.7366C71.1224 57.1856 71.6659 57.611 72.1622 58.0836C73.0838 58.958 73.1311 59.9505 72.1858 60.7776C68.712 63.7788 65.2146 66.7327 61.7171 69.7103C60.89 70.3956 59.8975 70.2774 59.2831 69.5448C58.7159 68.8359 58.8341 67.8434 59.6612 67.1344C62.4024 64.7713 65.1673 62.4554 67.9085 60.1159C68.1212 59.8796 68.3339 59.6905 68.6647 59.407Z" fill="#2B2B2B"/>
<path d="M6.96313 19.2335C6.96313 16.3741 9.27901 14.011 12.162 14.011C14.9978 14.011 17.3846 16.3978 17.3846 19.2335C17.3846 22.0693 14.9978 24.4561 12.162 24.4797C9.30264 24.4797 6.96313 22.1166 6.96313 19.2335ZM14.0526 19.2335C14.0526 18.241 13.1782 17.3666 12.1857 17.343C11.1459 17.3194 10.2479 18.2174 10.2479 19.2572C10.2479 20.2733 11.075 21.124 12.0912 21.1477C13.1309 21.1713 14.0526 20.2497 14.0526 19.2335Z" fill="#2B2B2B"/>
<path d="M49.4524 19.3281C49.4524 22.2111 47.1602 24.527 44.2772 24.527C41.3941 24.527 39.0546 22.2347 39.0546 19.3517C39.0546 16.4687 41.3705 14.1292 44.2535 14.1292C47.1129 14.1292 49.4524 16.445 49.4524 19.3281ZM44.2535 17.4375C43.2374 17.4375 42.3866 18.2646 42.3866 19.2808C42.363 20.3442 43.2137 21.1949 44.3008 21.1949C45.3406 21.1949 46.144 20.3678 46.1677 19.3517C46.1677 18.3119 45.3169 17.4375 44.2535 17.4375Z" fill="#2B2B2B"/>
<path d="M23.0089 19.2809C23.0089 16.3979 25.3248 14.082 28.2314 14.1056C31.1145 14.1056 33.4304 16.4452 33.4067 19.3282C33.4067 22.1876 31.0436 24.5271 28.1842 24.5271C25.3012 24.4798 23.0089 22.164 23.0089 19.2809ZM26.3173 19.3282C26.3409 20.368 27.168 21.1714 28.1842 21.1714C29.2476 21.1714 30.0983 20.2971 30.0747 19.2337C30.0511 18.2175 29.224 17.3904 28.1842 17.3904C27.1444 17.3904 26.2937 18.2648 26.3173 19.3282Z" fill="#2B2B2B"/>
</g>
<defs>
<clipPath id="clip0_433_2984">
<rect width="100" height="100" fill="white"/>
</clipPath>
</defs>
</svg>
