<svg width="100" height="100" viewBox="0 0 100 100" fill="none" xmlns="http://www.w3.org/2000/svg">
<path d="M50 10C64.5396 10 79.1061 10 93.6456 10C97.7383 10 100 12.2617 100 16.3543C100 38.9984 100 61.6424 100 84.2865C100 88.3791 97.7383 90.6408 93.6456 90.6408C64.5396 90.6408 35.4604 90.6408 6.35436 90.6408C2.26174 90.6408 0 88.3791 0 84.2865C0 61.6424 0 38.9984 0 16.3543C0 12.2617 2.26174 10 6.35436 10C20.9209 10 35.4605 10 50 10ZM96.769 22.9779C65.5358 22.9779 34.4103 22.9779 3.23102 22.9779C3.23102 23.3818 3.23102 23.7049 3.23102 24.028C3.23102 44.1141 3.23102 64.2003 3.23102 84.2865C3.23102 86.602 4.06571 87.4098 6.4082 87.4098C35.4604 87.4098 64.5126 87.4098 93.5648 87.4098C95.9612 87.4098 96.769 86.602 96.769 84.2057C96.769 64.1734 96.769 44.168 96.769 24.1357C96.769 23.7857 96.769 23.4087 96.769 22.9779ZM96.769 19.6392C96.769 18.5622 96.769 17.5121 96.769 16.489C96.769 14.0118 95.9882 13.231 93.538 13.231C64.5127 13.231 35.5143 13.231 6.48898 13.231C6.16588 13.231 5.81587 13.2041 5.49277 13.2579C4.33499 13.3656 3.36566 14.2272 3.31181 15.385C3.23103 16.7851 3.28492 18.1852 3.28492 19.6392C34.4373 19.6392 65.5089 19.6392 96.769 19.6392Z" fill="#2B2B2B"/>
<path d="M67.7975 50.2263C67.7975 56.8229 67.7975 63.2042 67.7975 69.6931C69.8707 69.6931 71.9171 69.6931 73.9634 69.6931C74.6096 69.6931 75.2288 69.6662 75.8751 69.7201C76.7636 69.7739 77.4098 70.447 77.4367 71.2817C77.4636 72.1433 76.8174 72.8434 75.8751 72.9242C75.6058 72.9511 75.3366 72.9242 75.0673 72.9242C58.3737 72.9242 41.6801 72.9242 24.9865 72.9242C24.825 72.9242 24.6635 72.9242 24.475 72.9242C23.3172 72.8972 22.5902 72.251 22.6171 71.2817C22.644 70.3393 23.3441 69.7201 24.448 69.7201C26.7098 69.6931 28.9446 69.7201 31.2063 69.7201C31.5294 69.7201 31.8525 69.7201 32.2294 69.7201C32.2294 63.258 32.2294 56.8768 32.2294 50.307C31.4486 50.8994 30.7755 51.4379 30.0754 51.9495C29.5639 52.3264 29.0792 52.7572 28.5676 53.1342C27.6791 53.7804 26.7367 53.7265 26.1443 52.9726C25.552 52.2456 25.7136 51.2763 26.5752 50.6032C28.6753 48.9339 30.8024 47.2914 32.9026 45.6221C38.0991 41.5294 43.2957 37.4368 48.5192 33.3711C49.8116 32.348 50.2154 32.348 51.5078 33.3711C58.7776 39.0793 66.0205 44.7874 73.2903 50.4955C74.2596 51.2494 74.475 52.1379 73.9365 52.9188C73.371 53.7265 72.3748 53.8342 71.4594 53.1611C70.2747 52.1918 69.0899 51.2494 67.7975 50.2263ZM64.4588 69.6393C64.4857 69.4239 64.5127 69.3431 64.5127 69.2354C64.5127 62.2618 64.5126 55.2613 64.4857 48.2877C64.4857 47.9376 64.2165 47.453 63.9472 47.2376C59.5315 43.7373 55.0889 40.264 50.6732 36.7368C50.1347 36.306 49.8115 36.3867 49.3 36.7637C44.9381 40.237 40.5493 43.6565 36.1605 47.1029C35.6489 47.5068 35.4873 47.9107 35.4873 48.53C35.5143 55.2343 35.5143 61.9656 35.5143 68.67C35.5143 68.9931 35.5143 69.3162 35.5143 69.6124C37.2106 69.6124 38.7453 69.6124 40.3608 69.6124C40.3608 69.2085 40.3608 68.8315 40.3608 68.4815C40.3608 65.2236 40.3608 61.9656 40.3608 58.7077C40.3608 57.3883 40.9532 56.7691 42.2456 56.7691C47.4152 56.7691 52.5848 56.7691 57.7544 56.7691C59.1276 56.7691 59.6931 57.3614 59.6931 58.7615C59.6931 62.0195 59.6931 65.2774 59.6931 68.5354C59.6931 68.8854 59.6931 69.2623 59.6931 69.6393C61.3355 69.6393 62.8702 69.6393 64.4588 69.6393ZM56.4082 60.0809C52.0732 60.0809 47.846 60.0809 43.6457 60.0809C43.6457 63.3119 43.6457 66.489 43.6457 69.6393C47.9537 69.6393 52.154 69.6393 56.4082 69.6393C56.4082 66.4352 56.4082 63.2849 56.4082 60.0809Z" fill="#2B2B2B"/>
<path d="M79.9408 82.5901C82.2025 82.5901 84.4372 82.5901 86.6989 82.5901C87.9644 82.5901 88.7183 83.1824 88.7183 84.2056C88.7183 85.2018 87.9644 85.8211 86.6989 85.8211C82.1217 85.8211 77.5713 85.8211 72.9941 85.8211C71.7286 85.8211 70.9747 85.2018 70.9747 84.2056C70.9747 83.2094 71.7016 82.5901 72.9941 82.5901C75.3096 82.5901 77.6252 82.5901 79.9408 82.5901Z" fill="#2B2B2B"/>
<path d="M92.7841 82.5901C92.9725 82.5901 93.1879 82.5901 93.3764 82.5901C94.4534 82.6439 95.1535 83.2901 95.1265 84.2594C95.0996 85.1749 94.4265 85.7942 93.3764 85.8211C92.9456 85.848 92.5148 85.848 92.0571 85.8211C90.9801 85.7942 90.28 85.1211 90.307 84.1518C90.3339 83.2363 91.007 82.6439 92.0571 82.5901C92.3263 82.5901 92.5687 82.5901 92.7841 82.5901Z" fill="#2B2B2B"/>
<path d="M7.21594 18.0507C6.91976 18.0507 6.59669 18.0777 6.30051 18.0507C5.43891 17.9161 4.92732 17.3776 4.87347 16.4891C4.81962 15.6544 5.46579 14.9543 6.3274 14.8466C6.8659 14.7928 7.4044 14.8197 7.94291 14.8197C8.99299 14.8466 9.66611 15.4659 9.69304 16.3814C9.71996 17.3238 9.01995 17.9969 7.91602 18.0238C7.67369 18.0777 7.45827 18.0777 7.21594 18.0507C7.21594 18.0777 7.21594 18.0507 7.21594 18.0507Z" fill="#2B2B2B"/>
<path d="M13.678 18.0776C13.4895 18.0776 13.2741 18.0776 13.0856 18.0776C12.0086 18.0237 11.3086 17.3775 11.3086 16.4351C11.3355 15.5197 12.0086 14.9004 13.0587 14.8735C13.4895 14.8465 13.9203 14.8465 14.3781 14.8735C15.4551 14.9004 16.182 15.5735 16.1551 16.5159C16.1282 17.4314 15.455 18.0506 14.405 18.0776C14.1626 18.0776 13.9203 18.0776 13.678 18.0776Z" fill="#2B2B2B"/>
<path d="M20.1131 18.0507C19.8169 18.0507 19.4938 18.1045 19.1976 18.0507C18.336 17.916 17.8244 17.3775 17.7706 16.489C17.7167 15.6543 18.363 14.9543 19.2246 14.8735C19.7631 14.8196 20.3016 14.8466 20.8401 14.8466C21.8901 14.8735 22.5633 15.4928 22.5902 16.4082C22.6171 17.3506 21.917 18.0237 20.8131 18.0507C20.5708 18.0776 20.3554 18.0776 20.1131 18.0507C20.1131 18.0776 20.1131 18.0507 20.1131 18.0507Z" fill="#2B2B2B"/>
</svg>
