<?xml version="1.0" encoding="UTF-8"?><svg id="Icon" xmlns="http://www.w3.org/2000/svg" viewBox="0 0 360 360"><defs><style>.cls-1,.cls-2,.cls-3{fill:none;stroke:#2e2d2c;stroke-width:12px;}.cls-1{stroke-linecap:round;stroke-linejoin:round;}.cls-2,.cls-3{stroke-linecap:square;}.cls-2{stroke-miterlimit:10;}.cls-3{stroke-linejoin:bevel;}</style></defs><polyline class="cls-1" points="72.41 50.27 72.41 32.66 347.49 32.66 347.49 167.07 108.14 167.07"/><path class="cls-1" d="M72.41,95.85A22.79,22.79,0,1,1,95.2,73.06,22.81,22.81,0,0,1,72.41,95.85Z"/><path class="cls-1" d="M110.38,136.91,96.69,320.67a7.19,7.19,0,0,1-7,6.67H55.1a7.21,7.21,0,0,1-7-6.67l-6.91-93.36L40,227.16c-9.05-1.33-21.62-8.6-22.36-16.9l-5.13-68.9c0-.58,0-1,0-1.19,0-13.74,10.81-25.15,24.11-25.48H194.38a22.22,22.22,0,0,1-22.23,22.22H110.38"/><line class="cls-1" x1="72.39" y1="203.14" x2="72.39" y2="306.79"/><line class="cls-1" x1="41.21" y1="209.7" x2="35.45" y2="131.84"/><path class="cls-1" d="M183.74,235.1A22.15,22.15,0,1,1,205.88,213,22.16,22.16,0,0,1,183.74,235.1Z"/><path class="cls-2" d="M238.29,309.73V278.82a25.42,25.42,0,0,0-25.42-25.42H154.51a25.42,25.42,0,0,0-25.42,25.42v30.91"/><line class="cls-3" x1="152.02" y1="294.67" x2="152.02" y2="309.73"/><line class="cls-3" x1="215.28" y1="294.67" x2="215.28" y2="309.73"/><line class="cls-1" x1="152.02" y1="287.17" x2="152.02" y2="305.69"/><line class="cls-1" x1="215.28" y1="287.17" x2="215.28" y2="305.69"/><path class="cls-1" d="M292.94,235.1A22.15,22.15,0,1,1,315.08,213,22.16,22.16,0,0,1,292.94,235.1Z"/><path class="cls-2" d="M347.49,309.73V278.82a25.42,25.42,0,0,0-25.42-25.42H263.71a25.42,25.42,0,0,0-25.42,25.42v30.91"/><line class="cls-3" x1="261.22" y1="294.67" x2="261.22" y2="309.73"/><line class="cls-3" x1="324.48" y1="294.67" x2="324.48" y2="309.73"/><line class="cls-1" x1="261.22" y1="287.17" x2="261.22" y2="305.69"/><line class="cls-1" x1="324.48" y1="287.17" x2="324.48" y2="305.69"/><line class="cls-1" x1="220.86" y1="115.04" x2="220.86" y2="140.52"/><line class="cls-1" x1="242.27" y1="103.79" x2="242.27" y2="140.52"/><line class="cls-1" x1="263.68" y1="92.53" x2="263.68" y2="140.52"/><line class="cls-1" x1="285.1" y1="81.28" x2="285.1" y2="140.52"/><line class="cls-1" x1="306.51" y1="70.02" x2="306.51" y2="140.52"/></svg>