<svg width="100" height="100" viewBox="0 0 100 100" fill="none" xmlns="http://www.w3.org/2000/svg">
<g clip-path="url(#clip0_431_6846)">
<path d="M16.6899 10.0054C16.6899 8.75363 16.662 7.69661 16.6899 6.61177C16.7733 2.91219 19.694 0.0192806 23.3658 0.0192806C27.0097 0.0192806 29.9583 2.91219 30.0139 6.61177C30.0417 7.69661 30.0139 8.75363 30.0139 9.92192C34.4367 9.92192 38.8317 9.92192 43.338 9.92192C43.338 8.94835 43.338 7.94696 43.338 6.97338C43.3658 3.02345 46.2031 0.047097 49.9583 0.0192806C53.7691 -0.00853584 56.6342 2.99564 56.662 7.0012C56.662 7.97477 56.662 8.92054 56.662 9.94974C61.1126 9.94974 65.452 9.94974 70.0139 9.94974C70.0139 8.78145 69.9861 7.58534 70.0139 6.38924C70.1252 3.19035 72.5174 0.575612 75.7441 0.0749168C78.7204 -0.397962 81.8081 1.4101 82.8651 4.30301C83.1432 5.08187 83.2545 5.91636 83.3102 6.75085C83.3936 7.78006 83.338 8.83708 83.338 10.0054C83.783 10.0054 84.2003 10.0054 84.5897 10.0054C87.4548 10.061 90.3755 9.86629 93.2128 10.2279C97.1349 10.7286 99.9722 14.2057 99.9722 18.1556C100 32.5645 100 46.9734 100 61.3545C100 62.5506 99.3046 63.3016 98.3032 63.3016C97.3018 63.2738 96.662 62.5228 96.662 61.2988C96.662 52.4254 96.662 43.5241 96.662 34.6507C96.662 34.2335 96.662 33.844 96.662 33.3712C65.5355 33.3712 34.5202 33.3712 3.33797 33.3712C3.33797 33.7328 3.33797 34.0944 3.33797 34.456C3.33797 51.0902 3.33797 67.6966 3.33797 84.3308C3.33797 87.9469 5.34075 89.9497 8.92907 89.9497C23.9499 89.9497 38.9986 89.9497 54.0195 89.9497C54.3533 89.9497 54.7149 89.9219 55.0487 89.9497C55.9666 90.0332 56.6342 90.7008 56.6342 91.5631C56.662 92.481 55.9944 93.1764 55.0209 93.2599C54.7705 93.2877 54.548 93.2599 54.2976 93.2599C39.1377 93.2599 23.9499 93.2599 8.78999 93.2599C3.5605 93.2599 0 89.7272 0 84.5255C0 62.5784 0 40.6591 0 18.7119C0 13.5102 3.5605 9.97756 8.76217 9.94974C11.4047 10.0054 13.9917 10.0054 16.6899 10.0054ZM30.0139 13.399C30.0139 14.5673 30.0139 15.5965 30.0139 16.6257C29.9583 20.4087 27.0376 23.3294 23.3658 23.3294C19.6662 23.3294 16.7455 20.3809 16.6899 16.6257C16.662 15.5687 16.6899 14.4838 16.6899 13.4824C16.523 13.4268 16.4673 13.3712 16.3839 13.3712C13.7413 13.3712 11.0987 13.3433 8.45619 13.3712C5.47983 13.399 3.36579 15.5408 3.33797 18.5172C3.31015 21.4101 3.33797 24.2752 3.33797 27.1681C3.33797 28.086 3.33797 29.0318 3.33797 29.9776C34.4923 29.9776 65.5355 29.9776 96.6342 29.9776C96.6342 25.9164 96.7177 21.9386 96.6064 17.9609C96.5229 15.4296 94.3254 13.4824 91.7663 13.399C90.2364 13.3712 88.7065 13.399 87.1766 13.399C85.8971 13.399 84.6453 13.399 83.3102 13.399C83.3102 14.5673 83.3936 15.6243 83.2823 16.6535C83.1989 17.5714 83.0598 18.5172 82.726 19.3795C81.5577 22.2168 78.4701 23.8579 75.5494 23.3016C72.3505 22.6897 70.0974 20.1027 69.9861 16.9317C69.9583 15.7634 69.9861 14.5951 69.9861 13.4546C65.452 13.4546 61.0848 13.4546 56.662 13.4546C56.662 14.4838 56.662 15.4296 56.662 16.4031C56.6342 20.4365 53.7691 23.4129 49.9583 23.3851C46.2031 23.3572 43.338 20.3809 43.338 16.431C43.338 15.4296 43.338 14.456 43.338 13.4268C38.8595 13.399 34.4923 13.399 30.0139 13.399ZM26.6759 11.7856C26.6759 10.1445 26.6759 8.53111 26.6759 6.88994C26.6481 4.85934 25.2573 3.35725 23.3658 3.35725C21.4743 3.35725 20.0278 4.8037 20 6.8343C19.9722 10.061 19.9722 13.2877 20 16.5144C20 18.545 21.4464 20.0193 23.338 19.9915C25.2295 19.9915 26.6203 18.4894 26.6481 16.4588C26.7038 14.9011 26.6759 13.3433 26.6759 11.7856ZM53.3519 11.7022C53.3519 10.061 53.3797 8.44765 53.3519 6.80648C53.3241 4.85933 51.9054 3.38507 50.0695 3.35725C48.178 3.32943 46.7316 4.8037 46.7038 6.8343C46.6759 10.061 46.6759 13.2877 46.7038 16.5144C46.7038 18.545 48.1502 20.0193 50.0417 20.0193C51.9332 20.0193 53.3241 18.5172 53.3519 16.4866C53.3519 14.8732 53.3519 13.2877 53.3519 11.7022ZM73.3519 11.6744C73.3519 13.2599 73.3519 14.8732 73.3519 16.4588C73.3797 18.4894 74.7705 19.9915 76.662 19.9915C78.5535 19.9915 80 18.5172 80 16.5144C80.0278 13.2877 80.0278 10.061 80 6.8343C80 4.8037 78.5257 3.32943 76.6342 3.35725C74.7427 3.38507 73.3519 4.85934 73.3241 6.88994C73.3241 8.50329 73.3519 10.0888 73.3519 11.6744Z" fill="#2B2B2B"/>
<path d="M78.4144 99.9635C66.3421 99.9635 56.6898 90.2834 56.6898 78.1555C56.6898 66.3335 66.4534 56.6534 78.3866 56.6534C90.2364 56.6256 100 66.3891 100 78.2389C100 90.2278 90.3199 99.9913 78.4144 99.9635ZM78.3866 96.6534C88.3727 96.6534 96.6342 88.4475 96.6898 78.4615C96.7176 68.3085 88.5396 59.9913 78.4701 59.9913C68.2336 59.9913 60.0556 68.1416 60.0278 78.3224C60 88.4197 68.2336 96.6256 78.3866 96.6534Z" fill="#2B2B2B"/>
<path d="M20.0279 53.3434C18.9152 53.3434 17.8026 53.3712 16.6899 53.3434C14.7984 53.2878 13.4076 51.9248 13.3797 50.0333C13.3519 48.3643 13.3519 46.6953 13.3797 45.0263C13.4076 43.1348 14.7706 41.7162 16.6621 41.6883C18.9152 41.6605 21.1683 41.6605 23.4215 41.6883C25.2573 41.7162 26.6482 43.107 26.676 44.9429C26.7316 46.6397 26.7038 48.3365 26.676 50.0333C26.6204 51.897 25.2295 53.2878 23.338 53.3156C22.2254 53.3434 21.1127 53.3434 20.0279 53.3434ZM23.2824 49.9498C23.2824 48.2808 23.2824 46.6675 23.2824 45.0819C21.0571 45.0819 18.8874 45.0819 16.7455 45.0819C16.7455 46.7509 16.7455 48.3086 16.7455 49.9498C18.9152 49.9498 21.0571 49.9498 23.2824 49.9498Z" fill="#2B2B2B"/>
<path d="M40 53.3434C38.8874 53.3434 37.7747 53.3712 36.6621 53.3434C34.7706 53.2878 33.3797 51.897 33.3519 50.0333C33.3241 48.3643 33.3241 46.6953 33.3519 45.0263C33.3797 43.0792 34.7706 41.7162 36.7455 41.6883C38.943 41.6605 41.1127 41.6605 43.3102 41.6883C45.2573 41.7162 46.6482 43.107 46.676 45.0541C46.7038 46.6953 46.7038 48.3086 46.676 49.9498C46.6482 51.9526 45.2573 53.3156 43.2267 53.3434C42.1419 53.3434 41.0849 53.3434 40 53.3434ZM43.3102 45.0819C41.0571 45.0819 38.9152 45.0819 36.7733 45.0819C36.7733 46.7509 36.7733 48.3643 36.7733 49.9498C38.9986 49.9498 41.1405 49.9498 43.3102 49.9498C43.3102 48.3086 43.3102 46.7231 43.3102 45.0819Z" fill="#2B2B2B"/>
<path d="M60 41.6606C61.1127 41.6606 62.2253 41.6327 63.338 41.6606C65.2295 41.7162 66.6203 43.0792 66.676 44.9707C66.7038 46.6675 66.7038 48.3643 66.676 50.0611C66.6203 51.897 65.2295 53.26 63.3936 53.3156C61.1405 53.3434 58.8874 53.3434 56.6342 53.3156C54.7984 53.2878 53.4075 51.897 53.3519 50.0611C53.2963 48.3365 53.2963 46.5841 53.3519 44.8594C53.4075 43.0792 54.7705 41.744 56.5508 41.6606C57.7191 41.6327 58.8595 41.6884 60 41.6606ZM63.2824 49.9498C63.2824 48.253 63.2824 46.6675 63.2824 45.082C61.0571 45.082 58.8874 45.082 56.7455 45.082C56.7455 46.751 56.7455 48.3365 56.7455 49.9498C58.943 49.9498 61.0571 49.9498 63.2824 49.9498Z" fill="#2B2B2B"/>
<path d="M80.0557 53.3434C78.943 53.3434 77.8304 53.3713 76.7177 53.3434C74.7706 53.2878 73.3797 51.897 73.3519 49.9777C73.3241 48.3365 73.3241 46.7231 73.3519 45.082C73.3797 43.1348 74.7706 41.744 76.6899 41.7162C78.9152 41.6884 81.1405 41.6884 83.3658 41.7162C85.2295 41.744 86.6204 43.1626 86.676 45.0263C86.7038 46.6953 86.7038 48.3643 86.676 50.0333C86.6482 51.9526 85.2295 53.3156 83.2824 53.3713C82.1975 53.3434 81.1127 53.3434 80.0557 53.3434ZM83.2546 49.9498C83.2546 48.253 83.2546 46.6397 83.2546 45.0541C81.0293 45.0541 78.9152 45.0541 76.7177 45.0541C76.7177 46.7231 76.7177 48.3087 76.7177 49.9498C78.943 49.9498 81.0849 49.9498 83.2546 49.9498Z" fill="#2B2B2B"/>
<path d="M20.0278 56.6812C21.1404 56.6812 22.2531 56.6534 23.3658 56.6812C25.2573 56.7369 26.6481 58.0999 26.6759 59.9914C26.7037 61.6882 26.7037 63.385 26.6759 65.0818C26.6203 66.9177 25.2294 68.2807 23.3936 68.3363C21.1404 68.3641 18.8873 68.3641 16.6342 68.3363C14.7983 68.3085 13.4075 66.9177 13.3797 65.0818C13.3518 63.3572 13.324 61.6047 13.3797 59.8801C13.4353 58.0999 14.8261 56.7647 16.6064 56.6812C17.719 56.6256 18.8873 56.6812 20.0278 56.6812ZM16.7733 60.047C16.7733 61.7438 16.7733 63.3572 16.7733 64.9149C18.9986 64.9149 21.1683 64.9149 23.3101 64.9149C23.3101 63.2459 23.3101 61.6604 23.3101 60.047C21.1126 60.047 18.9708 60.047 16.7733 60.047Z" fill="#2B2B2B"/>
<path d="M40.0278 56.6812C41.1404 56.6812 42.2531 56.6534 43.3657 56.6812C45.2573 56.7369 46.6481 58.0999 46.6759 59.9914C46.7037 61.6882 46.7037 63.385 46.6759 65.0818C46.6203 66.9177 45.2294 68.2807 43.3936 68.3363C41.1404 68.3641 38.8873 68.3641 36.6342 68.3363C34.7983 68.3085 33.4075 66.9177 33.3797 65.0818C33.3518 63.3572 33.324 61.6047 33.3797 59.8801C33.4353 58.0999 34.8261 56.7647 36.6064 56.6812C37.719 56.6256 38.8873 56.6812 40.0278 56.6812ZM43.3379 60.0748C41.0848 60.0748 38.9151 60.0748 36.7732 60.0748C36.7732 61.7438 36.7732 63.3572 36.7732 64.9149C38.9986 64.9149 41.1682 64.9149 43.3379 64.9149C43.3379 63.2737 43.3379 61.716 43.3379 60.0748Z" fill="#2B2B2B"/>
<path d="M19.9722 83.3295C18.943 83.3295 17.886 83.3295 16.8568 83.3295C14.7706 83.3017 13.3797 81.9387 13.3519 79.8803C13.3241 78.2947 13.3241 76.6814 13.3519 75.0958C13.3797 73.0931 14.7706 71.7022 16.7733 71.6744C18.9152 71.6466 21.0849 71.6466 23.2268 71.6744C25.2295 71.7022 26.6482 73.0653 26.676 75.068C26.7038 76.7092 26.7038 78.3225 26.676 79.9637C26.6482 81.9109 25.2573 83.2739 23.3102 83.3295C22.1975 83.3295 21.0849 83.3295 19.9722 83.3295ZM23.2824 79.9359C23.2824 78.2391 23.2824 76.6536 23.2824 75.068C21.0571 75.068 18.8874 75.068 16.7455 75.068C16.7455 76.737 16.7455 78.3226 16.7455 79.9359C18.943 79.9359 21.0849 79.9359 23.2824 79.9359Z" fill="#2B2B2B"/>
<path d="M40.0279 71.6745C41.1405 71.6745 42.2532 71.6467 43.3658 71.6745C45.2573 71.7301 46.6482 73.0931 46.676 74.9846C46.7038 76.6536 46.7038 78.3226 46.676 79.9916C46.6482 81.9387 45.2295 83.3017 43.2824 83.3296C41.0849 83.3574 38.9152 83.3574 36.7177 83.3296C34.7706 83.3017 33.3797 81.9109 33.3519 79.9638C33.3241 78.3226 33.3241 76.7092 33.3519 75.0681C33.3797 73.0653 34.7706 71.7023 36.8012 71.6745C37.886 71.6467 38.943 71.6745 40.0279 71.6745ZM43.2546 79.9638C43.2546 78.2391 43.2546 76.6258 43.2546 75.0681C41.0293 75.0681 38.8874 75.0681 36.7455 75.0681C36.7455 76.7371 36.7455 78.3226 36.7455 79.9638C38.943 79.9638 41.0849 79.9638 43.2546 79.9638Z" fill="#2B2B2B"/>
<path d="M56.7177 59.9914C56.7177 61.7161 56.7177 63.3016 56.7177 64.9149C56.9681 64.9984 57.1906 65.0818 57.4131 65.1931C58.1363 65.5825 58.498 66.1945 58.3032 67.0012C58.1085 67.8357 57.5244 68.3085 56.6621 68.3364C55.0209 68.392 53.4354 66.9455 53.3797 65.2209C53.3241 63.4129 53.3241 61.6048 53.3797 59.7967C53.4354 58.0721 54.8262 56.7369 56.5508 56.6813C58.7761 56.6257 61.0014 56.6535 63.2268 56.6813C64.2838 56.6813 65.007 57.3767 65.007 58.3225C65.0348 59.296 64.2838 59.9914 63.1711 60.0193C61.0571 60.0193 58.943 59.9914 56.7177 59.9914Z" fill="#2B2B2B"/>
<path d="M75.0209 84.3029C76.4673 82.8565 77.8025 81.4935 79.1377 80.1583C81.975 77.321 84.8122 74.4559 87.6773 71.6187C88.6231 70.6729 89.5688 70.6173 90.3199 71.3961C91.0431 72.1472 90.9597 73.0651 90.0417 73.9552C85.5076 78.4893 80.9736 83.0234 76.4395 87.5574C75.4103 88.5867 74.6036 88.5588 73.5744 87.5574C71.3769 85.3878 69.2072 83.1903 67.0376 81.0206C66.1474 80.1305 66.064 79.2125 66.7872 78.4615C67.5383 77.6826 68.484 77.7661 69.4298 78.684C71.2656 80.5199 73.0737 82.3558 75.0209 84.3029Z" fill="#2B2B2B"/>
</g>
<defs>
<clipPath id="clip0_431_6846">
<rect width="100" height="100" fill="white"/>
</clipPath>
</defs>
</svg>
