<svg width="100" height="100" viewBox="0 0 100 100" fill="none" xmlns="http://www.w3.org/2000/svg">
<path d="M0.0243962 49.7596C0.414831 48.2467 0.658852 46.685 1.2445 45.2696C3.4651 39.9012 7.41826 36.4605 13.104 35.0695C13.348 34.9963 13.592 34.9231 13.958 34.8255C13.3968 34.1423 12.8599 33.5078 12.3719 32.849C10.3465 30.1159 9.224 27.0412 9.00438 23.6493C8.93118 22.4536 9.46803 21.7216 10.3953 21.6972C11.2738 21.6484 11.8838 22.3072 11.9571 23.4541C12.4451 30.5552 17.594 35.6064 23.8165 36.7533C26.7448 37.2901 29.5754 36.9485 32.3084 35.7528C32.9673 35.46 33.2113 34.9963 33.2845 34.3131C33.6506 30.7016 34.9439 27.4317 37.3353 24.6742C38.1405 23.747 39.0678 22.9173 39.9951 22.112C40.654 21.5508 40.898 20.9895 40.7516 20.0866C38.8726 9.5449 26.8668 4.56686 18.082 10.6918C15.9346 12.1803 14.2997 14.1569 13.2504 16.5727C13.104 16.9388 12.9331 17.2804 12.7623 17.6464C12.2743 18.6469 11.5666 18.9885 10.7369 18.6713C9.93167 18.3541 9.63885 17.5244 10.0049 16.5483C10.9322 13.9861 12.3719 11.7655 14.3241 9.91094C24.2313 0.564914 40.2879 5.37213 43.4358 18.6225C43.7286 19.8182 43.7287 19.8182 44.8267 19.4278C48.7067 18.0613 52.611 18.0612 56.491 19.4522C57.3206 19.745 57.6623 19.6474 57.8819 18.7201C59.7121 11.5215 64.2997 7.08029 71.5227 5.39654C74.7438 4.64007 77.916 5.0061 81.0151 6.153C81.9668 6.51903 82.3816 7.2267 82.1132 8.03197C81.8448 8.88604 81.0639 9.27647 80.0635 8.95925C78.1601 8.32479 76.2323 7.95876 74.2313 8.03197C67.4963 8.27599 61.5178 13.6689 60.5661 20.3306C60.4685 21.0627 60.6881 21.5752 61.2494 22.0144C65.2269 25.1135 67.4719 29.1886 68.0332 34.1667C68.1308 35.094 68.57 35.582 69.4241 35.9236C78.1113 39.3643 87.6525 34.0691 89.1898 24.8206C89.9463 20.1842 88.6286 16.0603 85.4563 12.5952C85.2367 12.3512 84.9927 12.1315 84.773 11.8875C84.1386 11.131 84.1142 10.3014 84.7243 9.71571C85.3099 9.15447 86.2128 9.17887 86.9205 9.83773C88.7018 11.5215 90.1171 13.4492 90.9956 15.7186C93.6798 22.6489 92.533 28.8958 87.6281 34.4839C87.4817 34.6547 87.3353 34.8255 87.2865 34.8743C89.0922 35.8016 91.02 36.5337 92.6794 37.6562C96.7545 40.3892 99.0971 44.2692 99.8292 49.1496C99.8536 49.3692 99.9512 49.5888 100 49.8084C100 58.9104 100 68.0369 100 77.1389C98.8531 80.8724 96.2177 82.1169 92.4841 82.0193C87.2865 81.8973 82.0888 81.9949 76.8668 81.9949C76.5251 81.9949 76.1835 81.9949 75.7443 81.9949C75.7443 84.3375 75.7443 86.5337 75.7443 88.7299C75.7443 92.927 73.3528 95.3185 69.1557 95.3185C56.4178 95.3185 43.6554 95.3185 30.9175 95.3185C30.5515 95.3185 30.2099 95.3184 29.8438 95.294C26.9888 95.1476 24.6462 93.1223 24.4021 90.2672C24.1825 87.9246 24.2801 85.5332 24.2557 83.1662C24.2557 82.8002 24.2557 82.4097 24.2557 81.9949C23.7189 81.9949 23.3285 81.9949 22.938 81.9949C17.4475 81.9949 11.957 81.9949 6.44216 81.9949C4.34357 81.9949 2.51342 81.4092 1.2445 79.6279C0.707656 78.8714 0.414837 77.9685 0 77.1389C0.0244021 67.9636 0.0243962 58.8616 0.0243962 49.7596ZM24.2557 78.9202C24.2557 78.4566 24.2557 78.1637 24.2557 77.8953C24.2557 73.6982 24.2313 69.501 24.2801 65.3038C24.3045 63.9861 24.4266 62.644 24.6706 61.3263C25.1098 58.8616 26.1835 56.641 27.6964 54.6401C28.2821 53.8592 29.1362 53.7128 29.8194 54.2008C30.4783 54.6645 30.6247 55.4453 30.1611 56.275C30.0391 56.4702 29.917 56.6654 29.795 56.8607C27.9649 59.3741 27.2572 62.2291 27.2328 65.3038C27.2328 73.1857 27.2328 81.0432 27.2328 88.9251C27.2328 91.2189 28.3553 92.317 30.6735 92.317C43.5578 92.317 56.4422 92.317 69.3265 92.317C71.6203 92.317 72.7672 91.2189 72.7672 88.9251C72.7916 80.9944 72.816 73.0393 72.7672 65.1086C72.7184 58.4224 68.7165 53.1515 62.4939 51.4678C61.2006 51.1262 59.9073 50.7601 58.5163 51.4434C53.3187 54.0056 48.0966 53.9568 42.8258 51.4922C42.0205 51.1262 41.02 51.0285 40.1171 51.053C38.1161 51.1018 36.2372 51.7362 34.4558 52.6879C33.4553 53.2247 32.5525 53.0051 32.162 52.2243C31.7472 51.3946 32.0888 50.5405 33.1625 50.0281C34.0898 49.5888 35.0659 49.174 36.0176 48.808C37.4573 48.2467 37.6769 47.6855 36.7496 46.4165C35.4563 44.6596 34.4802 42.7806 33.8946 40.7064C33.3577 38.8763 33.1137 38.7299 31.2592 39.2667C27.184 40.438 23.1576 40.2672 19.3753 38.437C17.4475 37.5098 15.6418 37.5342 13.714 37.9978C7.22304 39.5839 3.02586 44.9768 3.00146 51.8094C2.97706 59.6181 3.00146 67.4268 3.00146 75.2355C3.00146 77.9441 4.00194 78.969 6.68618 78.969C12.1523 78.969 17.6183 78.969 23.0844 78.969C23.4261 78.9202 23.7677 78.9202 24.2557 78.9202ZM75.7443 78.8226C75.9639 78.8714 76.0615 78.9202 76.1591 78.9202C82.1132 78.9202 88.0673 78.9446 94.0215 78.9202C95.9248 78.8958 97.0229 77.6757 97.0229 75.6991C97.0229 67.6708 97.0718 59.6425 97.0229 51.5898C96.9741 44.9036 92.655 39.4863 86.3104 37.9734C84.9439 37.6562 83.6506 37.5586 82.284 38.2662C79.429 39.7304 76.3055 40.2916 73.1088 39.828C71.4007 39.5839 69.7169 39.1203 67.9112 38.7543C67.2767 42.439 65.5686 45.6601 62.8355 48.4419C63.2259 48.5639 63.4456 48.6371 63.6652 48.7104C70.6198 51.053 74.7438 55.8114 75.5978 63.132C75.9395 66.1091 75.7442 69.1838 75.7687 72.1852C75.7687 74.357 75.7443 76.5532 75.7443 78.8226ZM50.6833 21.3799C42.4597 21.4776 36.0908 27.9197 36.164 36.07C36.2372 44.0983 42.8502 50.4429 51.0005 50.3453C58.6871 50.2477 65.2513 43.5859 65.1537 35.948C65.0561 27.7977 58.5896 21.2823 50.6833 21.3799Z" fill="#2B2B2B"/>
</svg>
