<svg width="100" height="100" viewBox="0 0 100 100" fill="none" xmlns="http://www.w3.org/2000/svg">
<g clip-path="url(#clip0_431_6843)">
<path d="M99.9612 40.3404C99.3325 41.2049 98.8347 42.1481 98.1012 42.9078C90.2157 50.8457 82.304 58.7574 74.3399 66.6429C73.7111 67.2717 72.8204 67.848 71.9821 68.0314C69.6505 68.503 67.869 66.8263 67.8428 64.2065C67.8166 61.1414 67.8428 58.0763 67.8428 55.0373C67.8428 54.6968 67.8428 54.33 67.8428 53.8584C67.3451 53.8584 66.9259 53.8584 66.5067 53.8584C54.1414 53.8584 41.7761 53.806 29.4108 53.8846C26.3456 53.9108 24.8 52.077 24.9833 49.4048C25.0881 47.9116 25.0095 46.4183 25.0095 45.1084C19.6914 50.4265 14.3471 55.7971 9.08133 61.0366C14.2423 66.1976 19.639 71.5943 25.0095 76.9648C25.0095 75.6025 25.0095 74.0569 25.0095 72.5374C25.0095 69.4723 26.3194 68.1624 29.4108 68.1624C38.3966 68.1624 47.3824 68.1624 56.342 68.1624C56.997 68.1624 57.6519 68.2148 58.2545 68.3982C59.8263 68.8697 60.848 70.494 60.6646 72.0921C60.4551 73.7949 59.1714 75.1048 57.4685 75.262C57.0756 75.3144 56.6826 75.2882 56.2896 75.2882C48.6399 75.2882 40.9902 75.2882 33.3404 75.2882C32.9737 75.2882 32.6331 75.2882 32.1615 75.2882C32.1353 75.6811 32.1091 76.0217 32.1091 76.3623C32.1091 79.4012 32.1091 82.414 32.1091 85.4529C32.1091 86.8938 31.7424 88.1513 30.4325 88.9896C29.0964 89.8279 27.6031 89.7755 26.3456 88.8062C26.0313 88.5704 25.7693 88.2822 25.4811 88.0203C17.5432 80.03 9.55289 72.0397 1.56258 64.0494C-0.533238 61.9535 -0.533238 60.0673 1.53638 57.9977C9.55289 49.9812 17.5432 41.9647 25.5859 34.0006C26.2146 33.3718 27.0792 32.7693 27.9437 32.5859C30.2753 32.0619 32.1091 33.7648 32.1353 36.3322C32.1877 39.4235 32.1353 42.5148 32.1353 45.6062C32.1353 45.9467 32.1353 46.2873 32.1353 46.7589C32.6855 46.7589 33.1046 46.7589 33.5238 46.7589C45.9939 46.7589 58.4378 46.7589 70.908 46.7589C73.6063 46.7589 74.9686 48.1473 74.9686 50.8457C74.9686 52.1818 74.9686 53.5179 74.9686 54.854C74.9686 55.1421 74.9686 55.4041 74.9686 55.6137C80.3391 50.2431 85.7097 44.8726 91.0016 39.5807C85.7621 34.3411 80.3915 28.9444 75.021 23.6001C75.021 23.6787 74.9686 23.9144 74.9686 24.1502C74.9686 25.7483 74.9948 27.3463 74.9424 28.9444C74.89 30.8306 73.6063 32.1929 71.7463 32.4287C71.4843 32.4549 71.2223 32.4811 70.9604 32.4811C61.7126 32.4811 52.491 32.4811 43.2432 32.4811C42.693 32.4811 42.1167 32.4025 41.6189 32.2453C40.0732 31.7476 39.1039 30.1757 39.2611 28.6038C39.4445 26.901 40.7282 25.5911 42.431 25.3815C42.824 25.3291 43.217 25.3553 43.6099 25.3553C51.2597 25.3553 58.9094 25.3553 66.5591 25.3553C66.9521 25.3553 67.3189 25.3553 67.8166 25.3553C67.8166 24.91 67.8166 24.5694 67.8166 24.2288C67.8166 21.1899 67.8166 18.1771 67.8166 15.1382C67.8166 13.4354 68.393 12.0469 70.0434 11.3657C71.6939 10.6846 73.0562 11.2347 74.2875 12.4398C82.3826 20.5611 90.4777 28.63 98.5727 36.7513C99.1491 37.3277 99.5159 38.1136 99.9874 38.7948C99.9612 39.2925 99.9612 39.8165 99.9612 40.3404Z" fill="#2B2B2B"/>
</g>
<defs>
<clipPath id="clip0_431_6843">
<rect width="100" height="100" fill="white"/>
</clipPath>
</defs>
</svg>
