<svg width="100" height="100" viewBox="0 0 100 100" fill="none" xmlns="http://www.w3.org/2000/svg">
<g clip-path="url(#clip0_433_3064)">
<path d="M100 36.3358V26.0489H89.69V28.4168H95.7605L85.9868 38.3416C85.0205 37.7053 83.8653 37.3326 82.6232 37.3326C81.0647 37.3326 79.6453 37.9205 78.5632 38.8795L68.6563 31.3632C69.0558 30.5516 69.2868 29.6426 69.2868 28.6789C69.2868 25.3079 66.5379 22.5647 63.1589 22.5647C59.78 22.5647 57.0311 25.3079 57.0311 28.6789C57.0311 30.0274 57.4758 31.2711 58.22 32.2832L45.2653 46.3184C44.3337 45.7474 43.2421 45.4121 42.0711 45.4121C40.1774 45.4121 38.4821 46.2742 37.3574 47.6247L26.8332 41.9221C27.0137 41.3463 27.1116 40.7342 27.1116 40.0995C27.1116 36.7279 24.3626 33.9847 20.9832 33.9847C17.6037 33.9847 14.8547 36.7279 14.8547 40.0995C14.8547 41.1537 15.1237 42.1463 15.5963 43.0132L2.37316 53.9395V11H0V89.9474H99.7474V87.58H83.8095V53.1579H81.4368V87.58H64.3453V38.8874H61.9726V87.58H44.4821V61.2505H42.1095V87.58H22.1695V49.92H19.7963V87.58H2.37316V57.0137L17.1126 44.8347C18.1689 45.6958 19.5163 46.2137 20.9832 46.2137C22.8768 46.2137 24.5721 45.3516 25.6974 44.0005L36.2211 49.7037C36.0405 50.2795 35.9426 50.8916 35.9426 51.5263C35.9426 54.8979 38.6916 57.6405 42.0705 57.6405C45.45 57.6405 48.1984 54.8979 48.1984 51.5263C48.1984 50.1779 47.7537 48.9342 47.01 47.9226L59.9642 33.8874C60.8958 34.4584 61.9874 34.7937 63.1584 34.7937C64.7163 34.7937 66.1358 34.2058 67.2184 33.2468L77.1253 40.7632C76.7258 41.5747 76.4947 42.4837 76.4947 43.4468C76.4947 46.8184 79.2437 49.5616 82.6226 49.5616C86.0016 49.5616 88.7505 46.8184 88.7505 43.4468C88.7505 42.1689 88.3542 40.9826 87.68 40.0005L97.6263 29.9005V36.3363H100V36.3358ZM20.9832 43.8463C18.9126 43.8463 17.2279 42.1653 17.2279 40.0995C17.2279 38.0337 18.9126 36.3526 20.9832 36.3526C23.0537 36.3526 24.7384 38.0337 24.7384 40.0995C24.7384 42.1653 23.0537 43.8463 20.9832 43.8463ZM42.0711 55.2732C40.0005 55.2732 38.3158 53.5921 38.3158 51.5263C38.3158 49.4605 40.0005 47.7795 42.0711 47.7795C44.1416 47.7795 45.8263 49.4605 45.8263 51.5263C45.8263 53.5926 44.1416 55.2732 42.0711 55.2732ZM63.1589 32.4253C61.0884 32.4253 59.4037 30.7442 59.4037 28.6784C59.4037 26.6126 61.0884 24.9321 63.1589 24.9321C65.2295 24.9321 66.9142 26.6126 66.9142 28.6784C66.9142 30.7442 65.2295 32.4253 63.1589 32.4253ZM82.6232 47.1932C80.5526 47.1932 78.8679 45.5121 78.8679 43.4463C78.8679 41.3805 80.5526 39.6995 82.6232 39.6995C84.6937 39.6995 86.3784 41.3805 86.3784 43.4463C86.3784 45.5121 84.6942 47.1932 82.6232 47.1932Z" fill="#2B2B2B"/>
</g>
<defs>
<clipPath id="clip0_433_3064">
<rect width="100" height="78.9474" fill="white" transform="translate(0 11)"/>
</clipPath>
</defs>
</svg>
