<svg width="100" height="100" viewBox="0 0 100 100" fill="none" xmlns="http://www.w3.org/2000/svg">
<g clip-path="url(#clip0_432_1376)">
<path d="M15.7132 14.7689C16.3955 9.98217 18.3288 7.9031 21.911 7.9998C25.3226 8.0965 27.0853 10.0305 27.597 14.7689C30.2126 14.7689 32.9419 14.7689 35.6143 14.7689C38.3436 14.7689 41.0729 14.7689 43.1199 14.7689C44.4845 12.5931 45.3943 10.6107 46.7589 8.96681C47.3275 8.2899 48.9765 8.04815 50.1137 8.04815C53.4685 8.04815 55.1174 9.88546 55.9703 14.6238C61.3152 14.6238 66.66 14.6238 71.4932 14.6238C72.7441 12.5447 73.6539 10.5624 75.0754 8.96681C75.7008 8.24155 77.4635 7.9998 78.7144 8.04815C82.0123 8.14485 83.4907 9.98217 84.3436 14.7689C85.4808 14.7689 86.7318 14.7689 87.9258 14.7689C93.157 14.8172 95.9431 17.2347 95.9431 21.683C95.9431 37.1551 95.9431 52.6272 95.9431 68.0993C95.9431 74.0464 95.9431 80.0419 95.9431 85.989C95.9431 90.6306 93.157 92.9998 87.6984 92.9998C62.5092 92.9998 37.3201 92.9998 12.0741 92.9998C6.78613 92.9998 3.94312 90.6306 3.94312 86.1824C3.94312 64.6665 3.94312 43.1505 3.94312 21.6346C3.99998 17.1864 6.89985 14.8172 12.131 14.7689C13.2682 14.7689 14.4054 14.7689 15.7132 14.7689ZM7.41159 33.3354C7.41159 34.3991 7.41159 35.2211 7.41159 36.043C7.41159 52.4822 7.41159 68.8729 7.41159 85.3121C7.41159 89.2285 8.43508 90.1471 13.0408 90.1471C37.6613 90.1471 62.2818 90.1471 86.9023 90.1471C91.508 90.1471 92.5884 89.2768 92.5884 85.3604C92.5884 68.8729 92.5884 52.3371 92.5884 35.8496C92.5884 35.076 92.4746 34.3024 92.4746 33.3838C64.1013 33.3354 35.9555 33.3354 7.41159 33.3354ZM27.7107 17.7666C26.7441 23.4236 25.3226 25.1642 21.7973 25.2125C18.2151 25.2609 16.623 23.4236 15.5995 17.7182C13.9505 17.7182 12.131 17.3798 10.6526 17.8149C9.34485 18.2017 7.6959 19.4588 7.58218 20.4259C7.24101 23.617 7.46846 26.8565 7.46846 30.0959C35.9555 30.0959 64.2151 30.0959 92.5884 30.0959C92.5884 29.0806 92.5884 28.307 92.5884 27.485C92.5884 25.3092 92.6452 23.1335 92.5315 20.9577C92.4178 18.9753 91.11 17.8149 88.7787 17.6699C87.3004 17.5732 85.822 17.6699 84.3436 17.6699C83.1495 23.4719 81.8986 25.2125 78.4301 25.1158C72.801 25.0191 72.4029 21.3929 72.3461 17.8149C66.66 17.8149 61.2015 17.8149 55.7997 17.8149C55.288 23.0368 53.8096 24.9708 50.2274 25.1642C46.6452 25.3576 45.0531 23.5686 43.8591 17.7666C38.6279 17.7666 33.2262 17.7666 27.7107 17.7666ZM52.2744 16.7512C52.2744 15.4458 52.5587 14.1403 52.1607 12.9315C51.9332 12.1579 50.7392 11.5777 49.9431 10.9008C49.2039 11.5777 47.8961 12.2063 47.7824 12.9799C47.4981 15.4458 47.555 17.96 47.7824 20.4259C47.8393 21.1028 49.2608 22.2632 49.8294 22.1665C50.7392 22.0214 51.8764 21.1028 52.1607 20.3292C52.6155 19.2171 52.2744 17.96 52.2744 16.7512ZM19.3523 16.4611C19.3523 16.4611 19.4091 16.4611 19.3523 16.4611C19.3523 17.7182 19.068 19.072 19.466 20.2808C19.7503 21.0544 20.9444 21.6346 21.7404 22.3115C22.4796 21.6346 23.7874 20.9577 23.8442 20.2324C24.1285 17.8633 24.1285 15.4458 23.8442 13.0282C23.7305 12.2546 22.4796 11.6261 21.7404 10.9008C20.9444 11.6261 19.7503 12.2546 19.4091 13.1249C19.068 14.1403 19.3523 15.3491 19.3523 16.4611ZM76.042 16.5095C76.042 17.7666 75.8146 19.1204 76.1557 20.3292C76.3832 21.0544 77.6341 22.2632 78.1458 22.1665C79.1125 21.9731 80.4771 21.1028 80.534 20.3775C80.8183 17.9116 80.8183 15.3974 80.534 12.9799C80.4771 12.2546 79.1125 11.6261 78.3164 10.9492C77.5772 11.6261 76.3832 12.2063 76.0989 12.9799C75.7577 14.0436 76.042 15.3491 76.042 16.5095Z" fill="black"/>
<path d="M65.8641 70.8072C65.8641 68.0029 65.8641 65.4403 65.8641 62.7811C61.2015 62.7811 56.7095 62.7811 51.9333 62.7811C51.9333 65.3436 51.9333 67.9546 51.9333 70.5655C52.1039 70.6622 52.2744 70.7589 52.3882 70.7589C57.5624 70.9523 57.5624 70.9523 57.5624 75.3038C57.5624 77.3829 57.5624 79.5103 57.5624 81.5894C57.5624 83.0399 56.937 83.8618 55.0606 83.8618C51.649 83.8135 48.2374 83.8135 44.8257 83.8618C43.0062 83.9102 42.267 83.1366 42.267 81.6377C42.3239 79.0752 42.4376 76.4642 42.2102 73.9017C42.0396 71.4358 43.1199 70.4688 45.9629 70.8072C46.5884 70.8556 47.2707 70.7589 48.0099 70.7589C48.0099 68.0513 48.0099 65.537 48.0099 62.8294C43.3474 62.8294 38.7985 62.8294 34.0223 62.8294C34.0223 65.4403 34.0223 68.0029 34.0223 70.5171C34.1929 70.6138 34.3634 70.7589 34.534 70.7589C39.5377 70.9039 39.7083 70.082 39.6514 75.4005C39.6514 77.4796 39.5946 79.607 39.6514 81.6861C39.7083 83.2333 38.8554 83.8618 37.0927 83.8618C33.6811 83.8135 30.2695 83.8135 26.8579 83.8618C25.0383 83.8618 24.2992 83.1366 24.2992 81.6377C24.356 79.0752 24.4129 76.4642 24.2423 73.9017C24.0717 71.6292 24.9815 70.5171 27.7676 70.8072C28.5068 70.9039 29.246 70.8072 30.3832 70.8072C30.3832 67.8579 30.4969 65.1019 30.3264 62.2976C30.2695 60.4119 31.1224 59.6866 33.3399 59.735C38.1731 59.7833 42.9493 59.735 47.8962 59.735C47.8962 57.3658 47.8962 55.2384 47.8962 52.8692C46.0767 52.8692 44.3709 52.8209 42.7219 52.8692C40.9592 52.9176 40.0495 52.3374 40.0495 50.7418C40.1063 48.2276 40.1063 45.7617 40.0495 43.2475C40.0495 41.8454 40.7887 41.2168 42.4376 41.2168C47.2707 41.2651 52.1039 41.2651 56.937 41.2168C58.8134 41.2168 59.4388 41.9904 59.382 43.4409C59.3251 45.7617 59.3251 48.1309 59.382 50.4517C59.4388 52.2407 58.5291 52.9659 56.4821 52.8692C54.89 52.8209 53.2979 52.8692 51.5352 52.8692C51.5352 55.1901 51.5352 57.3175 51.5352 59.735C56.3684 59.735 61.0309 59.7833 65.7503 59.6866C68.1385 59.6383 69.2188 60.3152 69.1051 62.4426C68.9345 65.1019 69.0482 67.7612 69.0482 70.2754C69.3894 70.4688 69.5031 70.6622 69.6737 70.6622C75.1891 71.049 75.1891 71.049 75.1891 75.9807C75.1891 77.818 75.1323 79.7037 75.1891 81.541C75.246 82.9915 74.5637 83.8135 72.6873 83.8135C69.162 83.8135 65.6935 83.9102 62.1681 83.7168C61.3721 83.6684 60.0074 82.6047 59.9506 81.9278C59.7231 78.8817 59.7231 75.7873 59.9506 72.7412C60.0074 72.0643 61.2015 71.194 62.1113 70.8556C63.3622 70.5655 64.4994 70.8072 65.8641 70.8072ZM56.1409 44.3596C51.8764 44.3596 47.8393 44.3596 43.8591 44.3596C43.8591 46.2936 43.8591 48.0342 43.8591 49.8715C48.0099 49.8715 51.9901 49.8715 56.1409 49.8715C56.1409 47.9859 56.1409 46.2452 56.1409 44.3596ZM27.9951 80.8158C30.895 80.8158 33.5105 80.8158 36.183 80.8158C36.183 78.3982 36.183 76.1258 36.183 73.8533C33.3968 73.8533 30.7812 73.8533 27.9951 73.8533C27.9951 76.1741 27.9951 78.3982 27.9951 80.8158ZM72.005 73.8533C69.0482 73.8533 66.4327 73.8533 63.8171 73.8533C63.8171 76.2708 63.8171 78.5433 63.8171 80.8158C66.6601 80.8158 69.2757 80.8158 72.005 80.8158C72.005 78.4466 72.005 76.2225 72.005 73.8533ZM54.094 80.8641C54.094 78.3982 54.094 76.2225 54.094 73.8533C51.3078 73.8533 48.7491 73.8533 46.0198 73.8533C46.0198 76.2225 46.0198 78.4949 46.0198 80.8641C48.7491 80.8641 51.2509 80.8641 54.094 80.8641Z" fill="black"/>
</g>
<defs>
<clipPath id="clip0_432_1376">
<rect width="92" height="85" fill="white" transform="translate(4 8)"/>
</clipPath>
</defs>
</svg>
