<svg width="138" height="126" viewBox="0 0 138 126" fill="none" xmlns="http://www.w3.org/2000/svg">
<g clip-path="url(#clip0_234_689)">
<path d="M44.0996 125.7V109.4H116.5V123.9" stroke="black" stroke-width="6" stroke-miterlimit="10"/>
<path d="M52.6 103.4V92.4998L39.5 70.2998V58.2998" stroke="black" stroke-width="4" stroke-miterlimit="10"/>
<path d="M46.0996 51.2001H20.4996L7.09961 45.9001V39.2001L19.0996 33.6001H46.0996" stroke="black" stroke-width="3" stroke-miterlimit="10"/>
<path d="M21.5996 40.6001V50.4001" stroke="black" stroke-width="2" stroke-miterlimit="10"/>
<path d="M5.2 44.9H2.2C1 44.9 0 43.9 0 42.7C0 41.5 1 40.5 2.2 40.5H5.2C6.4 40.5 7.4 41.5 7.4 42.7C7.4 43.9 6.4 44.9 5.2 44.9Z" fill="black"/>
<path d="M39.5 29.7002C39.8 24.9002 40.1 20.1002 40.4 15.2002C41.7 15.1002 43.7 15.2002 45.9 16.1002C51.5 18.5002 53.1 24.6002 53.3 25.4002" stroke="black" stroke-width="4" stroke-miterlimit="10"/>
<path d="M53.3008 55.9999V8.49992C54.1008 5.19992 57.2008 2.79992 60.7008 2.99992C64.1008 3.09992 67.0008 5.59992 67.6008 8.89992" stroke="black" stroke-width="4" stroke-miterlimit="10"/>
<path d="M81.3992 8.70006C80.5992 4.80006 77.0992 2.20006 73.6992 2.50006C70.9992 2.70006 68.6992 4.70006 67.6992 7.40006C67.6992 14.7001 67.6992 22.1001 67.6992 29.4001" stroke="black" stroke-width="4" stroke-miterlimit="10"/>
<path d="M81.4004 29.5001V8.70013C81.4004 8.70013 87.8004 -4.19987 95.3004 8.70013" stroke="black" stroke-width="4" stroke-miterlimit="10"/>
<path d="M95.3008 29.4998V5.29984C95.3008 5.29984 103.401 -3.70016 109.401 7.89984V103.4" stroke="black" stroke-width="4" stroke-miterlimit="10"/>
<path d="M116.5 32.7998H130.8C131.8 33.2998 133.2 34.0998 134.3 35.5998C137.3 39.4998 137 45.4998 134.3 49.3998C133.1 51.0998 131.7 52.0998 130.8 52.6998C126.4 52.6998 122 52.6998 117.6 52.6998" stroke="black" stroke-width="3" stroke-miterlimit="10"/>
</g>
<defs>
<clipPath id="clip0_234_689">
<rect width="137.9" height="125.7" fill="white"/>
</clipPath>
</defs>
</svg>
